<svg xmlns="http://www.w3.org/2000/svg" xmlns:xlink="http://www.w3.org/1999/xlink" width="143" height="155" viewBox="0 0 143 155">
  <defs>
    <filter id="Trazado_1078" x="0" y="0" width="143" height="155" filterUnits="userSpaceOnUse">
      <feOffset dx="-9" dy="55" input="SourceAlpha"/>
      <feGaussianBlur stdDeviation="13" result="blur"/>
      <feFlood flood-opacity="0.161"/>
      <feComposite operator="in" in2="blur"/>
      <feComposite in="SourceGraphic"/>
    </filter>
    <filter id="Trazado_1078-2" x="0" y="0" width="143" height="155" filterUnits="userSpaceOnUse">
      <feOffset dx="-1" dy="1" input="SourceAlpha"/>
      <feGaussianBlur stdDeviation="10" result="blur-2"/>
      <feFlood flood-opacity="0.161" result="color"/>
      <feComposite operator="out" in="SourceGraphic" in2="blur-2"/>
      <feComposite operator="in" in="color"/>
      <feComposite operator="in" in2="SourceGraphic"/>
    </filter>
  </defs>
  <g id="Grupo_301" data-name="Grupo 301" transform="translate(-1764.616 -33.401)">
    <g id="Grupo_288" data-name="Grupo 288" transform="translate(64.616 -108.559)">
      <g data-type="innerShadowGroup">
        <g transform="matrix(1, 0, 0, 1, 1700, 141.96)" filter="url(#Trazado_1078)">
          <path id="Trazado_1078-3" data-name="Trazado 1078" d="M32.5,0C50.449,0,65,13.655,65,30.5S50.449,61,32.5,61,0,47.345,0,30.5,14.551,0,32.5,0Z" transform="translate(48)" fill="#fff"/>
        </g>
        <g transform="matrix(1, 0, 0, 1, 1700, 141.96)" filter="url(#Trazado_1078-2)">
          <path id="Trazado_1078-4" data-name="Trazado 1078" d="M32.5,0C50.449,0,65,13.655,65,30.5S50.449,61,32.5,61,0,47.345,0,30.5,14.551,0,32.5,0Z" transform="translate(48)" fill="#fff"/>
        </g>
      </g>
    </g>
    <path id="Icon_ionic-ios-settings" data-name="Icon ionic-ios-settings" d="M34.438,20.4a4.1,4.1,0,0,1,2.694-3.818,16,16,0,0,0-2.014-4.729,4.35,4.35,0,0,1-1.708.356,4.26,4.26,0,0,1-2.966-1.193,4.018,4.018,0,0,1-.867-4.555A16.835,16.835,0,0,0,24.734,4.5a4.236,4.236,0,0,1-7.835,0,16.887,16.887,0,0,0-4.852,1.963,4.007,4.007,0,0,1-.867,4.555,4.281,4.281,0,0,1-4.674.836A16.347,16.347,0,0,0,4.5,16.591a4.054,4.054,0,0,1,.008,7.635,16,16,0,0,0,2.014,4.729,4.331,4.331,0,0,1,1.7-.348A4.26,4.26,0,0,1,11.188,29.8a4.019,4.019,0,0,1,.867,4.546,16.985,16.985,0,0,0,4.852,1.963,4.228,4.228,0,0,1,7.818,0,16.886,16.886,0,0,0,4.852-1.963,4.022,4.022,0,0,1,.867-4.546,4.231,4.231,0,0,1,2.966-1.193,4.3,4.3,0,0,1,1.7.348,16.089,16.089,0,0,0,2.014-4.729A4.116,4.116,0,0,1,34.438,20.4ZM20.893,27.017a6.627,6.627,0,1,1,6.8-6.625A6.712,6.712,0,0,1,20.893,27.017Z" transform="translate(1821.3 43.496)" fill="#513a9b"/>
    <g id="Grupo_293" data-name="Grupo 293" transform="translate(-4058 -680)">
      <g id="Grupo_292" data-name="Grupo 292">
        <path id="Icon_ionic-ios-settings-2" data-name="Icon ionic-ios-settings" d="M34.438,20.4a4.1,4.1,0,0,1,2.694-3.818,16,16,0,0,0-2.014-4.729,4.35,4.35,0,0,1-1.708.356,4.26,4.26,0,0,1-2.966-1.193,4.018,4.018,0,0,1-.867-4.555A16.835,16.835,0,0,0,24.734,4.5a4.236,4.236,0,0,1-7.835,0,16.887,16.887,0,0,0-4.852,1.963,4.007,4.007,0,0,1-.867,4.555,4.281,4.281,0,0,1-4.674.836A16.347,16.347,0,0,0,4.5,16.591a4.054,4.054,0,0,1,.008,7.635,16,16,0,0,0,2.014,4.729,4.331,4.331,0,0,1,1.7-.348A4.26,4.26,0,0,1,11.188,29.8a4.019,4.019,0,0,1,.867,4.546,16.985,16.985,0,0,0,4.852,1.963,4.228,4.228,0,0,1,7.818,0,16.886,16.886,0,0,0,4.852-1.963,4.022,4.022,0,0,1,.867-4.546,4.231,4.231,0,0,1,2.966-1.193,4.3,4.3,0,0,1,1.7.348,16.089,16.089,0,0,0,2.014-4.729A4.116,4.116,0,0,1,34.438,20.4ZM20.893,27.017a6.627,6.627,0,1,1,6.8-6.625A6.712,6.712,0,0,1,20.893,27.017Z" transform="translate(5882.3 721.496)" fill="#82164c"/>
        <ellipse id="Elipse_22" data-name="Elipse 22" cx="9" cy="8.5" rx="9" ry="8.5" transform="translate(5894 734)" fill="#82164c"/>
      </g>
      <path id="Icon_ionic-ios-settings-3" data-name="Icon ionic-ios-settings" d="M29.386,17.817a3.43,3.43,0,0,1,2.239-3.2,13.45,13.45,0,0,0-1.674-3.96,3.593,3.593,0,0,1-1.42.3,3.527,3.527,0,0,1-2.465-1,3.384,3.384,0,0,1-.721-3.815A13.935,13.935,0,0,0,21.319,4.5a3.511,3.511,0,0,1-6.513,0,13.977,13.977,0,0,0-4.034,1.644,3.374,3.374,0,0,1-.721,3.815,3.515,3.515,0,0,1-2.465,1,3.476,3.476,0,0,1-1.42-.3A13.747,13.747,0,0,0,4.5,14.626a3.4,3.4,0,0,1,.007,6.395,13.451,13.451,0,0,0,1.674,3.96,3.577,3.577,0,0,1,1.413-.291,3.527,3.527,0,0,1,2.465,1A3.385,3.385,0,0,1,10.78,29.5a14.059,14.059,0,0,0,4.034,1.644,3.5,3.5,0,0,1,6.5,0A13.977,13.977,0,0,0,25.346,29.5a3.387,3.387,0,0,1,.721-3.808,3.5,3.5,0,0,1,2.465-1,3.552,3.552,0,0,1,1.413.291,13.529,13.529,0,0,0,1.674-3.96A3.446,3.446,0,0,1,29.386,17.817Zm-11.26,5.542a5.55,5.55,0,1,1,5.651-5.549A5.6,5.6,0,0,1,18.126,23.358Z" transform="translate(5885.053 724.081)" fill="#fff"/>
    </g>
  </g>
</svg>
