<svg xmlns="http://www.w3.org/2000/svg" xmlns:xlink="http://www.w3.org/1999/xlink" width="551.676" height="225.314" viewBox="0 0 551.676 225.314">
  <defs>
    <linearGradient id="linear-gradient" x1="-0.172" y1="1.363" x2="1.008" y2="-0.148" gradientUnits="objectBoundingBox">
      <stop offset="0"/>
      <stop offset="1"/>
    </linearGradient>
    <linearGradient id="linear-gradient-2" x1="0.536" y1="-3.216" x2="0.474" y2="3.306" xlink:href="#linear-gradient"/>
    <linearGradient id="linear-gradient-3" x1="0.428" y1="1.092" x2="0.564" y2="0.032" xlink:href="#linear-gradient"/>
    <linearGradient id="linear-gradient-4" x1="0.348" y1="0.735" x2="4.443" y2="-5.606" gradientUnits="objectBoundingBox">
      <stop offset="0" stop-color="#4f52ff"/>
      <stop offset="1" stop-color="#4042e2"/>
    </linearGradient>
    <linearGradient id="linear-gradient-5" x1="-0.381" y1="1.864" x2="3.713" y2="-4.476" xlink:href="#linear-gradient-4"/>
    <linearGradient id="linear-gradient-6" x1="-1.082" y1="2.951" x2="3.012" y2="-3.39" xlink:href="#linear-gradient-4"/>
    <linearGradient id="linear-gradient-7" x1="107.149" y1="-2.103" x2="104.312" y2="4.286" gradientUnits="objectBoundingBox">
      <stop offset="0" stop-color="#09005d"/>
      <stop offset="1" stop-color="#1a0f91"/>
    </linearGradient>
    <linearGradient id="linear-gradient-8" x1="424.436" y1="-2.586" x2="425.442" y2="-2.586" gradientUnits="objectBoundingBox">
      <stop offset="0" stop-color="#febbba"/>
      <stop offset="1" stop-color="#ff928e"/>
    </linearGradient>
    <linearGradient id="linear-gradient-9" x1="265.817" y1="-4.116" x2="258.797" y2="3.448" xlink:href="#linear-gradient-7"/>
    <linearGradient id="linear-gradient-10" x1="494.85" y1="-1.831" x2="495.863" y2="-1.831" xlink:href="#linear-gradient-8"/>
    <clipPath id="clip-path">
      <rect id="Rectángulo_302" data-name="Rectángulo 302" width="192.486" height="225.314"/>
    </clipPath>
  </defs>
  <g id="Grupo_311" data-name="Grupo 311" transform="translate(-92.034 -749.732)">
    <g id="Grupo_268" data-name="Grupo 268" transform="translate(-37.482 644.362)">
      <g id="nomina" transform="translate(314.704 165.698)">
        <g id="Illustration" transform="translate(0 0)">
          <g id="Grupo_68" data-name="Grupo 68">
            <path id="Trazado_235" data-name="Trazado 235" d="M241.437,296.127a60.676,60.676,0,0,1-9.372,7.548c-30.573,20.985-66.749,14.868-74.437,13.374-11.353-2.206-33.3-6.47-49.165-24.319-24-27-20.266-69.549-1.647-97.633,3.406-5.137,21.4-33.649,57.962-38.222,22.129-2.767,47.924,2.814,66.6,17.786C270.594,206.088,267.8,269.575,241.437,296.127Z" transform="translate(-91.646 -156.192)" fill="#fff"/>
            <g id="Grupo_45" data-name="Grupo 45" transform="translate(41.684 11.811)">
              <path id="Trazado_240" data-name="Trazado 240" d="M1104.93,803.814a8.239,8.239,0,0,1,8.13-8.344H1182.2a7.247,7.247,0,0,1,7.153,6.978l5.1,102.877a5.364,5.364,0,0,1-5.179,5.7l-79.238,1.478a5.078,5.078,0,0,1-5.1-5.145Z" transform="translate(-1104.93 -779.889)" fill="url(#linear-gradient)"/>
              <g id="Grupo_43" data-name="Grupo 43" transform="translate(5.664 14.725)">
                <path id="Trazado_241" data-name="Trazado 241" d="M1224.009,780.37a2.384,2.384,0,0,1,2.678-2.417c9.441,1.314,41.906,5.378,68.748,3.263a2.2,2.2,0,0,1,2.351,2.114l5.351,103.335a2.555,2.555,0,0,1-2.361,2.712c-11.289.686-57.782,3.337-74.365,1.554a2.024,2.024,0,0,1-1.781-2.022Z" transform="translate(-1224.009 -777.931)"/>
                <path id="Trazado_246" data-name="Trazado 246" d="M1436.595,2823.272h-63.68a.249.249,0,0,1-.245-.252v-3.759a.249.249,0,0,1,.245-.252h63.68a.248.248,0,0,1,.245.252v3.759A.249.249,0,0,1,1436.595,2823.272Z" transform="translate(-1365.599 -2719.373)" fill="#fff" opacity="0.58"/>
              </g>
              <path id="Trazado_251" data-name="Trazado 251" d="M1925.085,477.847a6.879,6.879,0,0,0-6.2-1.285,3.128,3.128,0,0,0-2.165,3.29l.659,7.385,7.844.715S1929.982,481.345,1925.085,477.847Zm-3.45,5.958a2.008,2.008,0,1,1,1.956-2.007A1.982,1.982,0,0,1,1921.635,483.805Z" transform="translate(-1878.1 -476.293)"/>
              <path id="Trazado_253" data-name="Trazado 253" d="M1705.74,681.761v-3.712a2.235,2.235,0,0,1,2.283-2.265l24.941.877a2.174,2.174,0,0,1,2.069,2.07l.208,3.567Z" transform="translate(-1677.165 -666.044)"/>
              <path id="Trazado_256" data-name="Trazado 256" d="M1490.113,772.688a2.378,2.378,0,0,1,2.348-2.3l43.614,0a3.249,3.249,0,0,1,3.177,2.745l.037.219a2.82,2.82,0,0,1-2.728,3.326h-44.746a1.827,1.827,0,0,1-1.8-1.936Z" transform="translate(-1471.7 -756.033)" fill="url(#linear-gradient-2)"/>
            </g>
            <g id="Grupo_51" data-name="Grupo 51" transform="translate(76.752 68.169)">
              <g id="Grupo_49" data-name="Grupo 49">
                <g id="Grupo_46" data-name="Grupo 46">
                  <path id="Trazado_257" data-name="Trazado 257" d="M1843.316,1634.823c-.343,12.568-1.455,55.919-.924,71.28a3.25,3.25,0,0,0,3.283,2.987c8.858.264,41.331.931,55.82.379a5.462,5.462,0,0,0,5.48-5.081c.3-13.191.966-50.294-.614-67.29a4.46,4.46,0,0,0-4.186-3.862c-9.647-.877-42.26-3.021-54.778-2.282A4.166,4.166,0,0,0,1843.316,1634.823Z" transform="translate(-1842.251 -1630.803)" fill="url(#linear-gradient-3)"/>
                </g>
                <g id="Grupo_48" data-name="Grupo 48" transform="translate(5.338 61.745)">
                  <path id="Trazado_271" data-name="Trazado 271" d="M1965.155,2899.052a3.359,3.359,0,0,1-3.315,3.4h-4.036a3.36,3.36,0,0,1-3.315-3.4h0a3.359,3.359,0,0,1,3.315-3.4h4.036a3.359,3.359,0,0,1,3.315,3.4Z" transform="translate(-1954.49 -2895.65)" opacity="0.63" fill="url(#linear-gradient-4)"/>
                  <path id="Trazado_272" data-name="Trazado 272" d="M2280.306,2899.052a3.359,3.359,0,0,1-3.315,3.4h-4.036a3.36,3.36,0,0,1-3.315-3.4h0a3.359,3.359,0,0,1,3.315-3.4h4.036a3.359,3.359,0,0,1,3.315,3.4Z" transform="translate(-2254.651 -2895.65)" opacity="0.63" fill="url(#linear-gradient-5)"/>
                  <path id="Trazado_273" data-name="Trazado 273" d="M2583.336,2899.052a3.36,3.36,0,0,1-3.315,3.4h-4.036a3.359,3.359,0,0,1-3.315-3.4h0a3.359,3.359,0,0,1,3.315-3.4h4.036a3.36,3.36,0,0,1,3.315,3.4Z" transform="translate(-2543.269 -2895.65)" opacity="0.63" fill="url(#linear-gradient-6)"/>
                </g>
              </g>
            </g>
            <g id="Grupo_67" data-name="Grupo 67" transform="translate(24.86 52.476)">
              <path id="Trazado_289" data-name="Trazado 289" d="M1153.525,3125.67s-.346,1.906-.525,3.794a1.291,1.291,0,0,0,1.2,1.423c2.451.129,7.694.384,9.577.316a.423.423,0,0,0,.369-.577h0a.938.938,0,0,0-.468-.516l-8.626-4.171Z" transform="translate(-1133.883 -3037.003)" fill="url(#linear-gradient-7)"/>
              <path id="Trazado_290" data-name="Trazado 290" d="M1158.72,3096.171l.243,2.286a2.7,2.7,0,0,0,2.555-.067l-.605-2.551Z" transform="translate(-1139.337 -3008.629)" fill="url(#linear-gradient-8)"/>
              <path id="Trazado_291" data-name="Trazado 291" d="M1032.891,2222.012c-.119.595-.889,29.752,2.027,42.85a.446.446,0,0,1-.258.513,7.349,7.349,0,0,1-2.478.492.748.748,0,0,1-.734-.556c-.84-3.041-4.859-18.273-5.266-32.79-.456-16.222.005-.552.005-.552l.449-10.02Z" transform="translate(-1012.911 -2177.399)"/>
              <path id="Trazado_292" data-name="Trazado 292" d="M932.805,3144.07a13.984,13.984,0,0,0-1.062,3.515.792.792,0,0,0,.672.958c.809.09,2.054.207,3.053.209a.784.784,0,0,0,.772-.876,6.78,6.78,0,0,0-1.485-3.678Z" transform="translate(-923.139 -3054.505)" fill="url(#linear-gradient-9)"/>
              <path id="Trazado_293" data-name="Trazado 293" d="M945.34,3081.613l.585,3.46a2.13,2.13,0,0,0,1.815.146l-.26-3.718Z" transform="translate(-936.106 -2994.99)" fill="url(#linear-gradient-10)"/>
              <path id="Trazado_294" data-name="Trazado 294" d="M896.492,2210.034c-2.627,15.362.186,38.033,1.164,42.475a.682.682,0,0,0,.539.53,4.41,4.41,0,0,0,1.943-.061.63.63,0,0,0,.449-.579c.17-3.581.128-25.579,2.524-34.249a1.974,1.974,0,0,1,.752-1.082l4.523-3.234.394-5.295Z" transform="translate(-888.541 -2164.644)"/>
              <g id="Grupo_62" data-name="Grupo 62" transform="translate(7.131 15.216)">
                <path id="Trazado_295" data-name="Trazado 295" d="M918.042,1622.2a68.275,68.275,0,0,0-15.676,1.853c-2.342,13.267-.654,28.612-.654,28.612,5.748,1.608,12.272-.828,12.272-.828,1.009-5.545,5.624-21.133,5.624-21.133a24.062,24.062,0,0,0,9.128-2.875,16.59,16.59,0,0,1-3.092-6.8A24.364,24.364,0,0,1,918.042,1622.2Z" transform="translate(-901.124 -1621.02)"/>
              </g>
              <path id="Trazado_299" data-name="Trazado 299" d="M765.845,1690.486l-2.787-7.426s-7,4.781-8.2,10.917a16.126,16.126,0,0,1,6.029,1.722C761.43,1692.8,765.845,1690.486,765.845,1690.486Z" transform="translate(-754.686 -1664.815)" stroke="#000" stroke-width="1"/>
              <path id="Trazado_300" data-name="Trazado 300" d="M768.363,1910.239s-7.849,4.451-10.447.559a3.1,3.1,0,0,1-.521-2.366,16.113,16.113,0,0,0-6.029-1.722,8.684,8.684,0,0,0,.845,5.825c4.534,8.708,17.167-.31,17.167-.31Z" transform="translate(-751.192 -1877.548)"/>
              <path id="Trazado_301" data-name="Trazado 301" d="M1050.491,1516.53l-2.434,7.007a.256.256,0,0,0,.11.306,5.447,5.447,0,0,0,5.779-.342,1.194,1.194,0,0,0,.543-.846l.823-6.077Z" transform="translate(-1033.924 -1506.415)"/>
              <g id="Grupo_64" data-name="Grupo 64" transform="translate(12.096 0)">
                <path id="Trazado_302" data-name="Trazado 302" d="M1087.238,1384.2s2.554,5.051,2.2,7.077-3.574,1.849-6.374.173l-1.916-5.445Z" transform="translate(-1077.553 -1380.544)"/>
                <path id="Trazado_303" data-name="Trazado 303" d="M1011.182,1317.557a.209.209,0,0,0,.091-.3,5.471,5.471,0,0,1-.709-1.584s-.465-.312,1.2-.7,4.139-1,4.672-2.442c.52-1.407-.778-4.971-2.928-2.162a.2.2,0,0,1-.32,0,2.056,2.056,0,0,0-2.526-.87,1.96,1.96,0,0,0-1.324,1.88.2.2,0,0,1-.24.208,2.3,2.3,0,0,0-2.729,1.274,1.961,1.961,0,0,0,.113,2.307.209.209,0,0,1-.089.342,1.242,1.242,0,0,0-.868,1.41c.059,1.314,1.49,1.213,1.9,1.156a.2.2,0,0,1,.178.067c.346.4,1.9,2.1,3.605,2.32a.207.207,0,0,0,.216-.274l-.717-2.207a.21.21,0,0,1,.112-.257Z" transform="translate(-1005.519 -1309.315)"/>
                <path id="Trazado_304" data-name="Trazado 304" d="M1090.818,1471.736s-1.84-1.322-1.985-.226,1.653,1.607,2.55,1.206Z" transform="translate(-1084.863 -1463.178)"/>
              </g>
            </g>
          </g>
        </g>
      </g>
      <rect id="Rectángulo_17" data-name="Rectángulo 17" width="155.973" height="40.196" rx="18" transform="translate(321.433 290.488)" fill="#fff"/>
      <text id="_NAME" data-name="#!NAME" transform="translate(399.175 317.28)" font-size="19" font-family="OpenSans, Open Sans"><tspan x="-4.077" y="0">?</tspan></text>
    </g>
    <g id="Grupo_269" data-name="Grupo 269" transform="translate(-176.697 664.276)">
      <g id="Grupo" transform="translate(268.731 150.428)">
        <g id="Grupo_16" data-name="Grupo 16" transform="translate(0 0)">
          <path id="Trazado_1" data-name="Trazado 1" d="M26.095,7.2H127.273c14.355,0,26.095,10.857,26.095,24.132V124.9c0,13.275-11.74,24.132-26.095,24.132H26.095C11.74,149.033,0,138.176,0,124.9V31.332C0,18.057,11.74,7.2,26.095,7.2Z" transform="translate(0 -3.042)" fill="#fff" fill-rule="evenodd"/>
          <g id="Grupo_15" data-name="Grupo 15" transform="translate(13.45)">
            <path id="Trazado_2" data-name="Trazado 2" d="M78.367,171.154H15.238C14.509,141.3,39.35,123.966,60.677,117.5c1.734-8.332,1.29-19.132,1.29-19.132H94.786s-.445,10.8,1.29,19.132c21.328,6.465,46.169,23.8,45.439,53.652Z" transform="translate(-15.133 -19.224)" fill-rule="evenodd"/>
            <path id="Trazado_3" data-name="Trazado 3" d="M100.783,109.917c-2.055,3.627-9.214,7.1-16.632,7.156-7.16.058-14.577-3.175-16.632-6.671.2-2.739.276-5.322.285-7.312h32.721C100.543,104.965,100.606,107.359,100.783,109.917Z" transform="translate(-20.917 -20.062)" fill-rule="evenodd"/>
            <path id="Trazado_4" data-name="Trazado 4" d="M45.908,68.9c-.151-1.563-7.062-3.405-9.356,1.7s1.841,12.346,9.668,12.913,5.523-.707,5.523-.707Z" transform="translate(-17.422 -13.701)" fill-rule="evenodd"/>
            <path id="Trazado_5" data-name="Trazado 5" d="M78.356,175.009H15.138c-.6-24.2,15.609-40.163,33.13-48.791q1.241-.58,2.348-1.11a81.636,81.636,0,0,1,9.961-3.751c.089-.419.169-.839.24-1.267a47.253,47.253,0,0,0,34.98.387c.053.3.116.592.169.88a82.243,82.243,0,0,1,9.837,3.693c.8.387,1.663.79,2.579,1.217,17.477,8.636,33.61,24.593,33.023,48.742H78.356Z" transform="translate(-15.122 -23.079)" fill-rule="evenodd"/>
            <path id="Trazado_6" data-name="Trazado 6" d="M124.725,68.9c.151-1.563,7.053-3.405,9.356,1.7s-1.841,12.346-9.668,12.913-5.523-.707-5.523-.707Z" transform="translate(-26.564 -13.701)" fill-rule="evenodd"/>
            <path id="Trazado_7" data-name="Trazado 7" d="M81.417,91.745c-40.708.9-61.262-91.94,0-89.555C142.688-.187,122.134,92.65,81.417,91.745Z" transform="translate(-18.183 -2.145)" fill-rule="evenodd"/>
            <path id="Trazado_10" data-name="Trazado 10" d="M34.44,166.189a.665.665,0,0,1,1.325.008l-.16,16.894a.665.665,0,0,1-1.325-.008Z" transform="translate(-17.241 -31.153)" fill="#383546" fill-rule="evenodd"/>
            <path id="Trazado_11" data-name="Trazado 11" d="M136.67,166.189A.665.665,0,0,1,138,166.2l-.16,16.894a.665.665,0,0,1-1.325-.008Z" transform="translate(-28.548 -31.153)" fill="#383546" fill-rule="evenodd"/>
            <path id="Trazado_13" data-name="Trazado 13" d="M45.22,56.755a25.216,25.216,0,0,0,.747-7.732c-.071-5.009,7.426-7.477,6.528-14.649C49.871,13.311,67.508,20.45,81.418,20.45V2.19h0C46.127.817,37.989,31.052,45.22,56.755Z" transform="translate(-18.184 -2.145)" fill-rule="evenodd"/>
            <path id="Trazado_14" data-name="Trazado 14" d="M122.553,56.295a33.126,33.126,0,0,1-.872-7.279c-.2-5-7.426-7.477-6.528-14.649C117.786,13.311,100.14,20.442,86.23,20.45V2.19C121.308.825,129.553,30.69,122.553,56.295Z" transform="translate(-22.987 -2.145)" fill-rule="evenodd"/>
            <path id="Trazado_29" data-name="Trazado 29" d="M47.04,20.993c2.686.419,7.871.485,10.53-.411,5.79-2.829,12.158.806,24.325.716,5.568,0,20.349-1.119,25.472-6.687,2.544-2.764,1.21,2.04-3.744,5.157,2.935,1.012,9.588,2.147,13.19,1.365C111.575,9.552,100.519,1.466,81.887,2.19h0C63.334,1.466,52.3,9.494,47.04,20.993Z" transform="translate(-18.652 -2.145)" fill-rule="evenodd"/>
          </g>
        </g>
      </g>
      <rect id="Rectángulo_1" data-name="Rectángulo 1" width="140.382" height="35.454" rx="17.727" transform="translate(275.261 275.316)" fill="#fff"/>
      <text id="_NAME-2" data-name="#!NAME" transform="translate(348.415 299.043)" font-size="16" font-family="OpenSans, Open Sans"><tspan x="-3.434" y="0">?</tspan></text>
    </g>
    <g id="Grupo_279" data-name="Grupo 279" transform="translate(-547.215 690.035)">
      <g id="recibos" transform="translate(993.868 59.698)">
        <g id="BACKGROUND" transform="translate(24.83 53.413)">
          <rect id="Rectángulo_274" data-name="Rectángulo 274" width="167.634" height="171.858" rx="83.817" fill="#fff"/>
        </g>
        <g id="OBJECTS" transform="translate(0 0)">
          <g id="Grupo_276" data-name="Grupo 276">
            <g id="Grupo_275" data-name="Grupo 275" clip-path="url(#clip-path)">
              <g id="Grupo_277" data-name="Grupo 277" transform="translate(27.92 43.597)">
                <g id="Grupo_271" data-name="Grupo 271" transform="translate(0)">
                  <path id="Trazado_1011" data-name="Trazado 1011" d="M114.629,144.654h.033L111.1,131.04l1.465-.413v.034a2.469,2.469,0,0,0,3,1.788,2.568,2.568,0,0,0,1.731-3.094.033.033,0,0,0-.033-.034l1.631-.447v.034a2.469,2.469,0,0,0,3,1.788,2.568,2.568,0,0,0,1.731-3.094.033.033,0,0,0-.033-.034l1.631-.447v.034a2.469,2.469,0,0,0,3,1.788,2.568,2.568,0,0,0,1.731-3.094.033.033,0,0,0-.033-.034l1.631-.447v.034a2.469,2.469,0,0,0,3,1.788,2.568,2.568,0,0,0,1.731-3.094.033.033,0,0,0-.033-.034l1.631-.447v.034a2.469,2.469,0,0,0,3,1.788,2.568,2.568,0,0,0,1.731-3.094.033.033,0,0,0-.033-.034l1.631-.447v.034a2.469,2.469,0,0,0,3,1.788,2.568,2.568,0,0,0,1.731-3.094.033.033,0,0,0-.033-.034l1.631-.447v.034a2.469,2.469,0,0,0,3,1.788,2.568,2.568,0,0,0,1.731-3.094.033.033,0,0,0-.033-.034l1.631-.447v.034a2.469,2.469,0,0,0,3,1.788,2.568,2.568,0,0,0,1.731-3.094.033.033,0,0,0-.033-.034l1.631-.447,18.11,69.07,3.562,13.615-1.465.413v-.034a2.469,2.469,0,0,0-3-1.788,2.568,2.568,0,0,0-1.731,3.094.033.033,0,0,0,.033.034l-1.631.447v-.034a2.469,2.469,0,0,0-3-1.788,2.568,2.568,0,0,0-1.731,3.094.033.033,0,0,0,.033.034l-1.631.447v-.034a2.469,2.469,0,0,0-3-1.788A2.568,2.568,0,0,0,166,204.476a.033.033,0,0,0,.033.034l-1.631.447v-.034a2.469,2.469,0,0,0-3-1.788,2.568,2.568,0,0,0-1.731,3.094.033.033,0,0,0,.033.034l-1.631.447v-.034a2.469,2.469,0,0,0-3-1.788,2.568,2.568,0,0,0-1.731,3.094.033.033,0,0,0,.033.034l-1.631.447v-.034a2.469,2.469,0,0,0-3-1.788,2.568,2.568,0,0,0-1.731,3.094.033.033,0,0,0,.033.034l-1.631.447v-.034a2.469,2.469,0,0,0-3-1.788,2.568,2.568,0,0,0-1.731,3.094.033.033,0,0,0,.033.034l-1.631.447v-.034a2.469,2.469,0,0,0-3-1.788,2.568,2.568,0,0,0-1.731,3.094.033.033,0,0,0,.033.034l-1.631.447Z" transform="translate(-111.1 -104.086)" fill="#d6d6d6" opacity="0.18"/>
                  <path id="Trazado_1012" data-name="Trazado 1012" d="M315.7,242.1l22.471,10.383a11.507,11.507,0,0,1,5.193,4.813l13.915,34.861L335.508,308.8l-12.617-46.173-2.9-4.848Z" transform="translate(-247.588 -186.439)"/>
                  <path id="Trazado_1013" data-name="Trazado 1013" d="M397.074,387.8l10.046,11.589-22.915,17.194L375.1,404.544Z" transform="translate(-287.508 -282.511)"/>
                  <path id="Trazado_1014" data-name="Trazado 1014" d="M323.5,266.417l-2-8.217,11.219,8.148a12.584,12.584,0,0,1,5.326,7.117l4.428,10.176Z" transform="translate(-251.458 -197.003)"/>
                  <path id="Trazado_1015" data-name="Trazado 1015" d="M294.2,313.738,296.3,320a9.853,9.853,0,0,0,6.225,6.292l5.959,1.96L299.493,310.3Z" transform="translate(-233.246 -231.191)"/>
                  <path id="Trazado_1016" data-name="Trazado 1016" d="M302.7,333.638l2.1,6.257a9.853,9.853,0,0,0,6.225,6.292l5.959,1.96L307.993,330.2Z" transform="translate(-238.916 -244.25)"/>
                  <path id="Trazado_1017" data-name="Trazado 1017" d="M320.2,357.638l2.1,6.257a9.853,9.853,0,0,0,6.225,6.292l5.959,1.96L325.493,354.2Z" transform="translate(-250.59 -259.998)"/>
                  <path id="Trazado_1018" data-name="Trazado 1018" d="M125.929,108.254h.033L122.4,94.64l1.465-.413v.034a2.469,2.469,0,0,0,3,1.788,2.568,2.568,0,0,0,1.731-3.094.033.033,0,0,0-.033-.034l1.631-.447v.034a2.469,2.469,0,0,0,3,1.788,2.568,2.568,0,0,0,1.731-3.094.033.033,0,0,0-.033-.034l1.631-.447v.034a2.469,2.469,0,0,0,3,1.788,2.568,2.568,0,0,0,1.731-3.094.033.033,0,0,0-.033-.034l1.631-.447V89a2.469,2.469,0,0,0,3,1.788,2.568,2.568,0,0,0,1.731-3.094.033.033,0,0,0-.033-.034l1.631-.447v.034a2.469,2.469,0,0,0,3,1.788,2.568,2.568,0,0,0,1.731-3.094.033.033,0,0,0-.033-.034l1.631-.447v.034a2.469,2.469,0,0,0,3,1.788,2.568,2.568,0,0,0,1.731-3.094.033.033,0,0,0-.033-.034l1.631-.447v.034a2.469,2.469,0,0,0,3,1.788,2.568,2.568,0,0,0,1.731-3.094.033.033,0,0,0-.033-.034l1.631-.447v.034a2.469,2.469,0,0,0,3,1.788,2.568,2.568,0,0,0,1.731-3.094.033.033,0,0,0-.033-.034l1.631-.447,18.11,69.07,3.562,13.615-1.465.413v-.034a2.469,2.469,0,0,0-3-1.788,2.568,2.568,0,0,0-1.731,3.094.033.033,0,0,0,.033.034l-1.631.447v-.034a2.469,2.469,0,0,0-3-1.788,2.568,2.568,0,0,0-1.731,3.094.033.033,0,0,0,.033.034l-1.631.447v-.034a2.469,2.469,0,0,0-3-1.788,2.568,2.568,0,0,0-1.731,3.094.033.033,0,0,0,.033.034l-1.631.447v-.034a2.469,2.469,0,0,0-3-1.788,2.568,2.568,0,0,0-1.731,3.094.033.033,0,0,0,.033.034l-1.631.447v-.034a2.469,2.469,0,0,0-3-1.788,2.568,2.568,0,0,0-1.731,3.094.033.033,0,0,0,.033.034l-1.631.447v-.034a2.469,2.469,0,0,0-3-1.788,2.568,2.568,0,0,0-1.731,3.094.033.033,0,0,0,.033.034l-1.631.447v-.034a2.469,2.469,0,0,0-3-1.788,2.568,2.568,0,0,0-1.731,3.094.033.033,0,0,0,.033.034l-1.631.447v-.034a2.469,2.469,0,0,0-3-1.788,2.568,2.568,0,0,0-1.731,3.094.033.033,0,0,0,.033.034l-1.631.447Z" transform="translate(-118.638 -80.2)"/>
                  <g id="Grupo_270" data-name="Grupo 270" transform="translate(55.457 59.105)">
                    <path id="Trazado_1019" data-name="Trazado 1019" d="M310.115,315.405,299.362,301.55a41.235,41.235,0,0,1-6.026-10.9l-4.694-12.893-10.02-16.09a6.238,6.238,0,0,1,1.8-8.458l.2-.137a5.781,5.781,0,0,1,7.923,1.513l7.524,10.486,13.416,11.345Z" transform="translate(-277.686 -252.117)"/>
                  </g>
                </g>
                <path id="Trazado_1021" data-name="Trazado 1021" d="M404.5,397.2l-27.4,19.184,4.827,6.567,27.5-19.631Z" transform="translate(-288.548 -288.215)"/>
                <path id="Trazado_1022" data-name="Trazado 1022" d="M415.788,404.4,381.1,430.77l20.806,27.573,34.522-27.848Z" transform="translate(-291.216 -292.939)"/>
              </g>
            </g>
          </g>
        </g>
      </g>
      <rect id="Rectángulo_303" data-name="Rectángulo 303" width="175.5" height="48.739" rx="18" transform="translate(1015.425 236.272)" fill="#fff"/>
      <text id="_NAME-3" data-name="#!NAME" transform="translate(1103.175 270.142)" font-size="24" font-family="OpenSans, Open Sans"><tspan x="-5.15" y="0">?</tspan></text>
    </g>
  </g>
</svg>
