<?xml version="1.0" encoding="utf-8"?>
<!-- Generator: Adobe Illustrator 24.1.0, SVG Export Plug-In . SVG Version: 6.00 Build 0)  -->
<svg version="1.1" id="Capa_1" xmlns="http://www.w3.org/2000/svg" xmlns:xlink="http://www.w3.org/1999/xlink" x="0px" y="0px"
	 viewBox="0 0 1280 720" style="enable-background:new 0 0 1280 720;" xml:space="preserve">
<style type="text/css">
	.st0{fill:url(#SVGID_1_);}
	.st1{clip-path:url(#SVGID_3_);}
	.st2{fill-rule:evenodd;clip-rule:evenodd;fill:#76CEFE;}
	.st3{opacity:0.8571;fill-rule:evenodd;clip-rule:evenodd;fill:#76CEFE;enable-background:new    ;}
	.st4{opacity:0.7143;fill-rule:evenodd;clip-rule:evenodd;fill:#76CEFE;enable-background:new    ;}
	.st5{opacity:0.5714;fill-rule:evenodd;clip-rule:evenodd;fill:#76CEFE;enable-background:new    ;}
	.st6{opacity:0.4286;fill-rule:evenodd;clip-rule:evenodd;fill:#76CEFE;enable-background:new    ;}
	.st7{opacity:0.2857;fill-rule:evenodd;clip-rule:evenodd;fill:#76CEFE;enable-background:new    ;}
	.st8{opacity:0.1429;fill-rule:evenodd;clip-rule:evenodd;fill:#76CEFE;enable-background:new    ;}
	.st9{fill-rule:evenodd;clip-rule:evenodd;fill:#76CEFE;fill-opacity:0;}
	.st10{opacity:0.86;fill-rule:evenodd;clip-rule:evenodd;fill:#76CEFE;enable-background:new    ;}
	.st11{opacity:0.7371;fill-rule:evenodd;clip-rule:evenodd;fill:#76CEFE;enable-background:new    ;}
	.st12{opacity:0.6143;fill-rule:evenodd;clip-rule:evenodd;fill:#76CEFE;enable-background:new    ;}
	.st13{opacity:0.4914;fill-rule:evenodd;clip-rule:evenodd;fill:#76CEFE;enable-background:new    ;}
	.st14{opacity:0.3686;fill-rule:evenodd;clip-rule:evenodd;fill:#76CEFE;enable-background:new    ;}
	.st15{opacity:0.2457;fill-rule:evenodd;clip-rule:evenodd;fill:#76CEFE;enable-background:new    ;}
	.st16{opacity:0.1229;fill-rule:evenodd;clip-rule:evenodd;fill:#76CEFE;enable-background:new    ;}
	.st17{opacity:0.76;fill-rule:evenodd;clip-rule:evenodd;fill:#76CEFE;enable-background:new    ;}
	.st18{opacity:0.6514;fill-rule:evenodd;clip-rule:evenodd;fill:#76CEFE;enable-background:new    ;}
	.st19{opacity:0.5429;fill-rule:evenodd;clip-rule:evenodd;fill:#76CEFE;enable-background:new    ;}
	.st20{opacity:0.4343;fill-rule:evenodd;clip-rule:evenodd;fill:#76CEFE;enable-background:new    ;}
	.st21{opacity:0.3257;fill-rule:evenodd;clip-rule:evenodd;fill:#76CEFE;enable-background:new    ;}
	.st22{opacity:0.2171;fill-rule:evenodd;clip-rule:evenodd;fill:#76CEFE;enable-background:new    ;}
	.st23{opacity:0.1086;fill-rule:evenodd;clip-rule:evenodd;fill:#76CEFE;enable-background:new    ;}
	.st24{opacity:0.64;fill-rule:evenodd;clip-rule:evenodd;fill:#76CEFE;enable-background:new    ;}
	.st25{opacity:0.5486;fill-rule:evenodd;clip-rule:evenodd;fill:#76CEFE;enable-background:new    ;}
	.st26{opacity:0.4571;fill-rule:evenodd;clip-rule:evenodd;fill:#76CEFE;enable-background:new    ;}
	.st27{opacity:0.3657;fill-rule:evenodd;clip-rule:evenodd;fill:#76CEFE;enable-background:new    ;}
	.st28{opacity:0.2743;fill-rule:evenodd;clip-rule:evenodd;fill:#76CEFE;enable-background:new    ;}
	.st29{opacity:0.1829;fill-rule:evenodd;clip-rule:evenodd;fill:#76CEFE;enable-background:new    ;}
	.st30{opacity:9.140000e-02;fill-rule:evenodd;clip-rule:evenodd;fill:#76CEFE;enable-background:new    ;}
	.st31{opacity:0.54;fill-rule:evenodd;clip-rule:evenodd;fill:#76CEFE;enable-background:new    ;}
	.st32{opacity:0.4629;fill-rule:evenodd;clip-rule:evenodd;fill:#76CEFE;enable-background:new    ;}
	.st33{opacity:0.3857;fill-rule:evenodd;clip-rule:evenodd;fill:#76CEFE;enable-background:new    ;}
	.st34{opacity:0.3086;fill-rule:evenodd;clip-rule:evenodd;fill:#76CEFE;enable-background:new    ;}
	.st35{opacity:0.2314;fill-rule:evenodd;clip-rule:evenodd;fill:#76CEFE;enable-background:new    ;}
	.st36{opacity:0.1543;fill-rule:evenodd;clip-rule:evenodd;fill:#76CEFE;enable-background:new    ;}
	.st37{opacity:7.710000e-02;fill-rule:evenodd;clip-rule:evenodd;fill:#76CEFE;enable-background:new    ;}
	.st38{opacity:0.44;fill-rule:evenodd;clip-rule:evenodd;fill:#76CEFE;enable-background:new    ;}
	.st39{opacity:0.3771;fill-rule:evenodd;clip-rule:evenodd;fill:#76CEFE;enable-background:new    ;}
	.st40{opacity:0.3143;fill-rule:evenodd;clip-rule:evenodd;fill:#76CEFE;enable-background:new    ;}
	.st41{opacity:0.2514;fill-rule:evenodd;clip-rule:evenodd;fill:#76CEFE;enable-background:new    ;}
	.st42{opacity:0.1886;fill-rule:evenodd;clip-rule:evenodd;fill:#76CEFE;enable-background:new    ;}
	.st43{opacity:0.1257;fill-rule:evenodd;clip-rule:evenodd;fill:#76CEFE;enable-background:new    ;}
	.st44{opacity:6.290000e-02;fill-rule:evenodd;clip-rule:evenodd;fill:#76CEFE;enable-background:new    ;}
	.st45{opacity:0.35;fill-rule:evenodd;clip-rule:evenodd;fill:#76CEFE;enable-background:new    ;}
	.st46{opacity:0.3;fill-rule:evenodd;clip-rule:evenodd;fill:#76CEFE;enable-background:new    ;}
	.st47{opacity:0.25;fill-rule:evenodd;clip-rule:evenodd;fill:#76CEFE;enable-background:new    ;}
	.st48{opacity:0.2;fill-rule:evenodd;clip-rule:evenodd;fill:#76CEFE;enable-background:new    ;}
	.st49{opacity:0.15;fill-rule:evenodd;clip-rule:evenodd;fill:#76CEFE;enable-background:new    ;}
	.st50{opacity:0.1;fill-rule:evenodd;clip-rule:evenodd;fill:#76CEFE;enable-background:new    ;}
	.st51{opacity:5.000000e-02;fill-rule:evenodd;clip-rule:evenodd;fill:#76CEFE;enable-background:new    ;}
	.st52{fill:none;stroke:#C700FE;stroke-width:2;stroke-miterlimit:10;}
	.st53{fill:none;stroke:#953AFE;stroke-width:2;stroke-miterlimit:10;}
	.st54{fill:none;stroke:#6475FE;stroke-width:2;stroke-miterlimit:10;}
	.st55{fill:none;stroke:#32AFFE;stroke-width:2;stroke-miterlimit:10;}
	.st56{fill:none;stroke:#00E9FE;stroke-width:2;stroke-miterlimit:10;}
	.st57{opacity:0.4;fill:none;stroke:#00E9FE;stroke-width:2;stroke-miterlimit:10;enable-background:new    ;}
</style>
<g id="BACKGROUND">
	
		<radialGradient id="SVGID_1_" cx="889.0535" cy="1201.8832" r="1270.0266" gradientTransform="matrix(1 0 0 1 0 -70)" gradientUnits="userSpaceOnUse">
		<stop  offset="0" style="stop-color:#EAC6FF"/>
		<stop  offset="0.1133" style="stop-color:#BA80E4"/>
		<stop  offset="0.1356" style="stop-color:#B072DF"/>
		<stop  offset="0.1968" style="stop-color:#71C4D0"/>
		<stop  offset="0.3843" style="stop-color:#6096B0"/>
		<stop  offset="1" style="stop-color:#290047"/>
	</radialGradient>
	<rect class="st0" width="1280" height="720"/>
</g>
<g id="OBJECTS">
	<g>
		<g>
			<g>
				<g>
					<defs>
						<rect id="SVGID_2_" width="1280" height="720"/>
					</defs>
					<clipPath id="SVGID_3_">
						<use xlink:href="#SVGID_2_"  style="overflow:visible;"/>
					</clipPath>
					<g class="st1">
						<g>
							<g>
								<rect x="858.3" y="526.5" class="st2" width="14" height="14"/>
								<rect x="899.8" y="526.5" class="st3" width="14" height="14"/>
								<rect x="941.3" y="526.5" class="st4" width="14" height="14"/>
								<rect x="982.8" y="526.5" class="st5" width="14" height="14"/>
								<rect x="1024.3" y="526.5" class="st6" width="13.9" height="14"/>
								<rect x="1065.8" y="526.5" class="st7" width="13.9" height="14"/>
								<rect x="1107.4" y="526.5" class="st8" width="13.9" height="14"/>
								<rect x="1148.9" y="526.5" class="st9" width="13.9" height="14"/>
							</g>
							<g>
								<rect x="858.3" y="566.7" class="st2" width="14" height="14"/>
								<rect x="899.8" y="566.7" class="st3" width="14" height="14"/>
								<rect x="941.3" y="566.7" class="st4" width="14" height="14"/>
								<rect x="982.8" y="566.7" class="st5" width="14" height="14"/>
								<rect x="1024.3" y="566.7" class="st6" width="13.9" height="14"/>
								<rect x="1065.8" y="566.7" class="st7" width="13.9" height="14"/>
								<rect x="1107.4" y="566.7" class="st8" width="13.9" height="14"/>
								<rect x="1148.9" y="566.7" class="st9" width="13.9" height="14"/>
							</g>
							<g>
								<rect x="858.3" y="607" class="st10" width="14" height="14"/>
								<rect x="899.8" y="607" class="st11" width="14" height="14"/>
								<rect x="941.3" y="607" class="st12" width="14" height="14"/>
								<rect x="982.8" y="607" class="st13" width="14" height="14"/>
								<rect x="1024.3" y="607" class="st14" width="13.9" height="14"/>
								<rect x="1065.8" y="607" class="st15" width="13.9" height="14"/>
								<rect x="1107.4" y="607" class="st16" width="13.9" height="14"/>
								<rect x="1148.9" y="607" class="st9" width="13.9" height="14"/>
							</g>
							<g>
								<rect x="858.3" y="647.2" class="st17" width="14" height="14"/>
								<rect x="899.8" y="647.2" class="st18" width="14" height="14"/>
								<rect x="941.3" y="647.2" class="st19" width="14" height="14"/>
								<rect x="982.8" y="647.2" class="st20" width="14" height="14"/>
								<rect x="1024.3" y="647.2" class="st21" width="13.9" height="14"/>
								<rect x="1065.8" y="647.2" class="st22" width="13.9" height="14"/>
								<rect x="1107.4" y="647.2" class="st23" width="13.9" height="14"/>
								<rect x="1148.9" y="647.2" class="st9" width="13.9" height="14"/>
							</g>
							<g>
								<rect x="858.3" y="687.4" class="st24" width="14" height="14"/>
								<rect x="899.8" y="687.4" class="st25" width="14" height="14"/>
								<rect x="941.3" y="687.4" class="st26" width="14" height="14"/>
								<rect x="982.8" y="687.4" class="st27" width="14" height="14"/>
								<rect x="1024.3" y="687.4" class="st28" width="13.9" height="14"/>
								<rect x="1065.8" y="687.4" class="st29" width="13.9" height="14"/>
								<rect x="1107.4" y="687.4" class="st30" width="13.9" height="14"/>
								<rect x="1148.9" y="687.4" class="st9" width="13.9" height="14"/>
							</g>
							<g>
								<rect x="858.3" y="727.7" class="st31" width="14" height="14"/>
								<rect x="899.8" y="727.7" class="st32" width="14" height="14"/>
								<rect x="941.3" y="727.7" class="st33" width="14" height="14"/>
								<rect x="982.8" y="727.7" class="st34" width="14" height="14"/>
								<rect x="1024.3" y="727.7" class="st35" width="13.9" height="14"/>
								<rect x="1065.8" y="727.7" class="st36" width="13.9" height="14"/>
								<rect x="1107.4" y="727.7" class="st37" width="13.9" height="14"/>
								<rect x="1148.9" y="727.7" class="st9" width="13.9" height="14"/>
							</g>
							<g>
								<rect x="858.3" y="767.9" class="st38" width="14" height="14"/>
								<rect x="899.8" y="767.9" class="st39" width="14" height="14"/>
								<rect x="941.3" y="767.9" class="st40" width="14" height="14"/>
								<rect x="982.8" y="767.9" class="st41" width="14" height="14"/>
								<rect x="1024.3" y="767.9" class="st42" width="13.9" height="14"/>
								<rect x="1065.8" y="767.9" class="st43" width="13.9" height="14"/>
								<rect x="1107.4" y="767.9" class="st44" width="13.9" height="14"/>
								<rect x="1148.9" y="767.9" class="st9" width="13.9" height="14"/>
							</g>
							<g>
								<rect x="858.3" y="808.2" class="st45" width="14" height="14"/>
								<rect x="899.8" y="808.2" class="st46" width="14" height="14"/>
								<rect x="941.3" y="808.2" class="st47" width="14" height="14"/>
								<rect x="982.8" y="808.2" class="st48" width="14" height="14"/>
								<rect x="1024.3" y="808.2" class="st49" width="13.9" height="14"/>
								<rect x="1065.8" y="808.2" class="st50" width="13.9" height="14"/>
								<rect x="1107.4" y="808.2" class="st51" width="13.9" height="14"/>
								<rect x="1148.9" y="808.2" class="st9" width="13.9" height="14"/>
							</g>
						</g>
						<g>
							<g>
								<rect x="-49.2" y="-182.8" class="st2" width="14" height="13.9"/>
								<rect x="-7.7" y="-182.8" class="st3" width="13.9" height="13.9"/>
								<rect x="33.9" y="-182.8" class="st4" width="14" height="13.9"/>
								<rect x="75.4" y="-182.8" class="st5" width="13.9" height="13.9"/>
								<rect x="116.9" y="-182.8" class="st6" width="14" height="13.9"/>
								<rect x="158.4" y="-182.8" class="st7" width="13.9" height="13.9"/>
								<rect x="199.9" y="-182.8" class="st8" width="13.9" height="13.9"/>
								<rect x="241.4" y="-182.8" class="st9" width="13.9" height="13.9"/>
							</g>
							<g>
								<rect x="-49.2" y="-142.5" class="st2" width="14" height="13.9"/>
								<rect x="-7.7" y="-142.5" class="st3" width="13.9" height="13.9"/>
								<rect x="33.9" y="-142.5" class="st4" width="14" height="13.9"/>
								<rect x="75.4" y="-142.5" class="st5" width="13.9" height="13.9"/>
								<rect x="116.9" y="-142.5" class="st6" width="14" height="13.9"/>
								<rect x="158.4" y="-142.5" class="st7" width="13.9" height="13.9"/>
								<rect x="199.9" y="-142.5" class="st8" width="13.9" height="13.9"/>
								<rect x="241.4" y="-142.5" class="st9" width="13.9" height="13.9"/>
							</g>
							<g>
								<rect x="-49.2" y="-102.3" class="st10" width="14" height="13.9"/>
								<rect x="-7.7" y="-102.3" class="st11" width="13.9" height="13.9"/>
								<rect x="33.9" y="-102.3" class="st12" width="14" height="13.9"/>
								<rect x="75.4" y="-102.3" class="st13" width="13.9" height="13.9"/>
								<rect x="116.9" y="-102.3" class="st14" width="14" height="13.9"/>
								<rect x="158.4" y="-102.3" class="st15" width="13.9" height="13.9"/>
								<rect x="199.9" y="-102.3" class="st16" width="13.9" height="13.9"/>
								<rect x="241.4" y="-102.3" class="st9" width="13.9" height="13.9"/>
							</g>
							<g>
								<rect x="-49.2" y="-62" class="st17" width="14" height="14"/>
								<rect x="-7.7" y="-62" class="st18" width="13.9" height="14"/>
								<rect x="33.9" y="-62" class="st19" width="14" height="14"/>
								<rect x="75.4" y="-62" class="st20" width="13.9" height="14"/>
								<rect x="116.9" y="-62" class="st21" width="14" height="14"/>
								<rect x="158.4" y="-62" class="st22" width="13.9" height="14"/>
								<rect x="199.9" y="-62" class="st23" width="13.9" height="14"/>
								<rect x="241.4" y="-62" class="st9" width="13.9" height="14"/>
							</g>
							<g>
								<rect x="-49.2" y="-21.8" class="st24" width="14" height="13.9"/>
								<rect x="-7.7" y="-21.8" class="st25" width="13.9" height="13.9"/>
								<rect x="33.9" y="-21.8" class="st26" width="14" height="13.9"/>
								<rect x="75.4" y="-21.8" class="st27" width="13.9" height="13.9"/>
								<rect x="116.9" y="-21.8" class="st28" width="14" height="13.9"/>
								<rect x="158.4" y="-21.8" class="st29" width="13.9" height="13.9"/>
								<rect x="199.9" y="-21.8" class="st30" width="13.9" height="13.9"/>
								<rect x="241.4" y="-21.8" class="st9" width="13.9" height="13.9"/>
							</g>
							<g>
								<rect x="-49.2" y="18.5" class="st31" width="14" height="14"/>
								<rect x="-7.7" y="18.5" class="st32" width="13.9" height="14"/>
								<rect x="33.9" y="18.5" class="st33" width="14" height="14"/>
								<rect x="75.4" y="18.5" class="st34" width="13.9" height="14"/>
								<rect x="116.9" y="18.5" class="st35" width="14" height="14"/>
								<rect x="158.4" y="18.5" class="st36" width="13.9" height="14"/>
								<rect x="199.9" y="18.5" class="st37" width="13.9" height="14"/>
								<rect x="241.4" y="18.5" class="st9" width="13.9" height="14"/>
							</g>
							<g>
								<rect x="-49.2" y="58.7" class="st38" width="14" height="13.9"/>
								<rect x="-7.7" y="58.7" class="st39" width="13.9" height="13.9"/>
								<rect x="33.9" y="58.7" class="st40" width="14" height="13.9"/>
								<rect x="75.4" y="58.7" class="st41" width="13.9" height="13.9"/>
								<rect x="116.9" y="58.7" class="st42" width="14" height="13.9"/>
								<rect x="158.4" y="58.7" class="st43" width="13.9" height="13.9"/>
								<rect x="199.9" y="58.7" class="st44" width="13.9" height="13.9"/>
								<rect x="241.4" y="58.7" class="st9" width="13.9" height="13.9"/>
							</g>
							<g>
								<rect x="-49.2" y="99" class="st45" width="14" height="13.9"/>
								<rect x="-7.7" y="99" class="st46" width="13.9" height="13.9"/>
								<rect x="33.9" y="99" class="st47" width="14" height="13.9"/>
								<rect x="75.4" y="99" class="st48" width="13.9" height="13.9"/>
								<rect x="116.9" y="99" class="st49" width="14" height="13.9"/>
								<rect x="158.4" y="99" class="st50" width="13.9" height="13.9"/>
								<rect x="199.9" y="99" class="st51" width="13.9" height="13.9"/>
								<rect x="241.4" y="99" class="st9" width="13.9" height="13.9"/>
							</g>
						</g>
						<g>
							<g>
								<rect x="340.9" y="650.7" class="st2" width="8.6" height="8.6"/>
								<rect x="315.3" y="650.7" class="st3" width="8.6" height="8.6"/>
								<rect x="289.8" y="650.7" class="st4" width="8.6" height="8.6"/>
								<rect x="264.2" y="650.7" class="st5" width="8.6" height="8.6"/>
								<rect x="238.6" y="650.7" class="st6" width="8.6" height="8.6"/>
								<rect x="213" y="650.7" class="st7" width="8.6" height="8.6"/>
								<rect x="187.5" y="650.7" class="st8" width="8.6" height="8.6"/>
								<rect x="161.9" y="650.7" class="st9" width="8.6" height="8.6"/>
							</g>
							<g>
								<rect x="316.6" y="675.5" class="st10" width="8.6" height="8.6"/>
								<rect x="291.1" y="675.5" class="st11" width="8.6" height="8.6"/>
								<rect x="265.5" y="675.5" class="st12" width="8.6" height="8.6"/>
								<rect x="239.9" y="675.5" class="st13" width="8.6" height="8.6"/>
								<rect x="214.4" y="675.5" class="st14" width="8.6" height="8.6"/>
								<rect x="188.8" y="675.5" class="st15" width="8.6" height="8.6"/>
								<rect x="163.2" y="675.5" class="st16" width="8.6" height="8.6"/>
								<rect x="137.7" y="675.5" class="st9" width="8.6" height="8.6"/>
							</g>
						</g>
						<g>
							<g>
								<rect x="1139.5" y="98.8" class="st2" width="8.6" height="8.6"/>
								<rect x="1165" y="98.8" class="st3" width="8.6" height="8.6"/>
								<rect x="1190.6" y="98.8" class="st4" width="8.6" height="8.6"/>
								<rect x="1216.2" y="98.8" class="st5" width="8.6" height="8.6"/>
								<rect x="1241.7" y="98.8" class="st6" width="8.6" height="8.6"/>
								<rect x="1267.3" y="98.8" class="st7" width="8.6" height="8.6"/>
								<rect x="1292.9" y="98.8" class="st8" width="8.6" height="8.6"/>
								<rect x="1318.4" y="98.8" class="st9" width="8.6" height="8.6"/>
							</g>
							<g>
								<rect x="1139.5" y="74.1" class="st2" width="8.6" height="8.6"/>
								<rect x="1165" y="74.1" class="st3" width="8.6" height="8.6"/>
								<rect x="1190.6" y="74.1" class="st4" width="8.6" height="8.6"/>
								<rect x="1216.2" y="74.1" class="st5" width="8.6" height="8.6"/>
								<rect x="1241.7" y="74.1" class="st6" width="8.6" height="8.6"/>
								<rect x="1267.3" y="74.1" class="st7" width="8.6" height="8.6"/>
								<rect x="1292.9" y="74.1" class="st8" width="8.6" height="8.6"/>
								<rect x="1318.4" y="74.1" class="st9" width="8.6" height="8.6"/>
							</g>
							<g>
								<rect x="1139.5" y="49.3" class="st10" width="8.6" height="8.6"/>
								<rect x="1165" y="49.3" class="st11" width="8.6" height="8.6"/>
								<rect x="1190.6" y="49.3" class="st12" width="8.6" height="8.6"/>
								<rect x="1216.2" y="49.3" class="st13" width="8.6" height="8.6"/>
								<rect x="1241.7" y="49.3" class="st14" width="8.6" height="8.6"/>
								<rect x="1267.3" y="49.3" class="st15" width="8.6" height="8.6"/>
								<rect x="1292.9" y="49.3" class="st16" width="8.6" height="8.6"/>
								<rect x="1318.4" y="49.3" class="st9" width="8.6" height="8.6"/>
							</g>
							<g>
								<rect x="1139.5" y="24.5" class="st17" width="8.6" height="8.6"/>
								<rect x="1165" y="24.5" class="st18" width="8.6" height="8.6"/>
								<rect x="1190.6" y="24.5" class="st19" width="8.6" height="8.6"/>
								<rect x="1216.2" y="24.5" class="st20" width="8.6" height="8.6"/>
								<rect x="1241.7" y="24.5" class="st21" width="8.6" height="8.6"/>
								<rect x="1267.3" y="24.5" class="st22" width="8.6" height="8.6"/>
								<rect x="1292.9" y="24.5" class="st23" width="8.6" height="8.6"/>
								<rect x="1318.4" y="24.5" class="st9" width="8.6" height="8.6"/>
							</g>
							<g>
								<rect x="1139.5" y="-0.3" class="st24" width="8.6" height="8.6"/>
								<rect x="1165" y="-0.3" class="st25" width="8.6" height="8.6"/>
								<rect x="1190.6" y="-0.3" class="st26" width="8.6" height="8.6"/>
								<rect x="1216.2" y="-0.3" class="st27" width="8.6" height="8.6"/>
								<rect x="1241.7" y="-0.3" class="st28" width="8.6" height="8.6"/>
								<rect x="1267.3" y="-0.3" class="st29" width="8.6" height="8.6"/>
								<rect x="1292.9" y="-0.3" class="st30" width="8.6" height="8.6"/>
								<rect x="1318.4" y="-0.3" class="st9" width="8.6" height="8.6"/>
							</g>
							<g>
								<rect x="1139.5" y="-25.1" class="st31" width="8.6" height="8.6"/>
								<rect x="1165" y="-25.1" class="st32" width="8.6" height="8.6"/>
								<rect x="1190.6" y="-25.1" class="st33" width="8.6" height="8.6"/>
								<rect x="1216.2" y="-25.1" class="st34" width="8.6" height="8.6"/>
								<rect x="1241.7" y="-25.1" class="st35" width="8.6" height="8.6"/>
								<rect x="1267.3" y="-25.1" class="st36" width="8.6" height="8.6"/>
								<rect x="1292.9" y="-25.1" class="st37" width="8.6" height="8.6"/>
								<rect x="1318.4" y="-25.1" class="st9" width="8.6" height="8.6"/>
							</g>
							<g>
								<rect x="1139.5" y="-49.9" class="st38" width="8.6" height="8.6"/>
								<rect x="1165" y="-49.9" class="st39" width="8.6" height="8.6"/>
								<rect x="1190.6" y="-49.9" class="st40" width="8.6" height="8.6"/>
								<rect x="1216.2" y="-49.9" class="st41" width="8.6" height="8.6"/>
								<rect x="1241.7" y="-49.9" class="st42" width="8.6" height="8.6"/>
								<rect x="1267.3" y="-49.9" class="st43" width="8.6" height="8.6"/>
								<rect x="1292.9" y="-49.9" class="st44" width="8.6" height="8.6"/>
								<rect x="1318.4" y="-49.9" class="st9" width="8.6" height="8.6"/>
							</g>
							<g>
								<rect x="1139.5" y="-74.7" class="st45" width="8.6" height="8.6"/>
								<rect x="1165" y="-74.7" class="st46" width="8.6" height="8.6"/>
								<rect x="1190.6" y="-74.7" class="st47" width="8.6" height="8.6"/>
								<rect x="1216.2" y="-74.7" class="st48" width="8.6" height="8.6"/>
								<rect x="1241.7" y="-74.7" class="st49" width="8.6" height="8.6"/>
								<rect x="1267.3" y="-74.7" class="st50" width="8.6" height="8.6"/>
								<rect x="1292.9" y="-74.7" class="st51" width="8.6" height="8.6"/>
								<rect x="1318.4" y="-74.7" class="st9" width="8.6" height="8.6"/>
							</g>
						</g>
						<g>
							<g>
								<rect x="688.7" y="42.6" class="st2" width="8.6" height="8.6"/>
								<rect x="663.1" y="42.6" class="st3" width="8.6" height="8.6"/>
								<rect x="637.5" y="42.6" class="st4" width="8.6" height="8.6"/>
								<rect x="612" y="42.6" class="st5" width="8.6" height="8.6"/>
								<rect x="586.4" y="42.6" class="st6" width="8.6" height="8.6"/>
								<rect x="560.8" y="42.6" class="st7" width="8.6" height="8.6"/>
								<rect x="535.3" y="42.6" class="st8" width="8.6" height="8.6"/>
								<rect x="509.7" y="42.6" class="st9" width="8.6" height="8.6"/>
							</g>
							<g>
								<rect x="664.5" y="67.4" class="st10" width="8.6" height="8.6"/>
								<rect x="638.9" y="67.4" class="st11" width="8.6" height="8.6"/>
								<rect x="613.3" y="67.4" class="st12" width="8.6" height="8.6"/>
								<rect x="587.8" y="67.4" class="st13" width="8.6" height="8.6"/>
								<rect x="562.2" y="67.4" class="st14" width="8.6" height="8.6"/>
								<rect x="536.6" y="67.4" class="st15" width="8.6" height="8.6"/>
								<rect x="511" y="67.4" class="st16" width="8.6" height="8.6"/>
								<rect x="485.5" y="67.4" class="st9" width="8.6" height="8.6"/>
							</g>
						</g>
					</g>
				</g>
			</g>
		</g>
		<g>
			<g>
				<polygon class="st52" points="835.8,32.9 854.7,49.3 835.8,65.7 				"/>
				<polygon class="st53" points="908.3,49.3 889.3,65.7 889.3,32.9 				"/>
				<polygon class="st54" points="961.8,49.3 942.9,65.7 942.9,32.9 				"/>
				<polygon class="st55" points="1015.3,49.3 996.4,65.7 996.4,32.9 				"/>
				<polygon class="st56" points="1050,32.9 1068.9,49.3 1050,65.7 				"/>
			</g>
			<g>
				<polygon class="st52" points="74.1,578.9 93,595.3 74.1,611.7 				"/>
				<polygon class="st53" points="146.6,595.3 127.6,611.7 127.6,578.9 				"/>
				<polygon class="st54" points="200.1,595.3 181.2,611.7 181.2,578.9 				"/>
				<polygon class="st55" points="253.7,595.3 234.7,611.7 234.7,578.9 				"/>
				<polygon class="st56" points="288.3,578.9 307.2,595.3 288.3,611.7 				"/>
			</g>
		</g>
		<g>
			<path class="st57" d="M122.8,188.6l14.1,11.1c3.9,3.1,9.6,2.4,12.6-1.5s2.4-9.6-1.5-12.6l-14.1-11.1l11.1-14.1
				c3.1-3.9,2.4-9.6-1.5-12.6c-3.9-3.1-9.6-2.4-12.6,1.5l-11.1,14.1l-14.1-11.1c-3.9-3.1-9.6-2.4-12.6,1.5c-1.5,1.9-2.1,4.3-1.8,6.6
				c0.3,2.3,1.4,4.5,3.4,6l14.1,11.1l-11.1,14.1c-1.5,1.9-2.1,4.3-1.8,6.6c0.3,2.3,1.4,4.5,3.4,6c3.9,3.1,9.6,2.4,12.6-1.5
				L122.8,188.6z"/>
			<path class="st57" d="M322,109.7l7.5-3.1c2.1-0.8,3.1-3.2,2.2-5.3c-0.9-2.1-3.2-3.1-5.3-2.2l-7.5,3.1l-3.1-7.5
				c-0.9-2.1-3.2-3.1-5.3-2.2s-3.1,3.2-2.2,5.3l3.1,7.5l-7.5,3.1c-2.1,0.8-3.1,3.2-2.2,5.3c0.4,1,1.2,1.8,2.2,2.2s2.1,0.4,3.1,0
				l7.5-3.1l3.1,7.5c0.4,1,1.2,1.8,2.2,2.2s2.1,0.4,3.1,0c2.1-0.8,3.1-3.2,2.2-5.3L322,109.7z"/>
		</g>
	</g>
</g>
</svg>
