<?xml version="1.0" encoding="utf-8"?>
<!-- Generator: Adobe Illustrator 24.1.0, SVG Export Plug-In . SVG Version: 6.00 Build 0)  -->
<svg version="1.1" id="Capa_1" xmlns="http://www.w3.org/2000/svg" xmlns:xlink="http://www.w3.org/1999/xlink" x="0px" y="0px"
	 viewBox="0 0 1280 720" style="enable-background:new 0 0 1280 720;" xml:space="preserve">
<style type="text/css">
	.st0{fill:url(#SVGID_1_);}
	.st1{clip-path:url(#SVGID_3_);}
	.st2{fill-rule:evenodd;clip-rule:evenodd;fill:#76CEFE;}
	.st3{opacity:0.8571;fill-rule:evenodd;clip-rule:evenodd;fill:#76CEFE;enable-background:new    ;}
	.st4{opacity:0.7143;fill-rule:evenodd;clip-rule:evenodd;fill:#76CEFE;enable-background:new    ;}
	.st5{opacity:0.5714;fill-rule:evenodd;clip-rule:evenodd;fill:#76CEFE;enable-background:new    ;}
	.st6{opacity:0.4286;fill-rule:evenodd;clip-rule:evenodd;fill:#76CEFE;enable-background:new    ;}
	.st7{opacity:0.2857;fill-rule:evenodd;clip-rule:evenodd;fill:#76CEFE;enable-background:new    ;}
	.st8{opacity:0.1429;fill-rule:evenodd;clip-rule:evenodd;fill:#76CEFE;enable-background:new    ;}
	.st9{fill-rule:evenodd;clip-rule:evenodd;fill:#76CEFE;fill-opacity:0;}
	.st10{opacity:0.86;fill-rule:evenodd;clip-rule:evenodd;fill:#76CEFE;enable-background:new    ;}
	.st11{opacity:0.7371;fill-rule:evenodd;clip-rule:evenodd;fill:#76CEFE;enable-background:new    ;}
	.st12{opacity:0.6143;fill-rule:evenodd;clip-rule:evenodd;fill:#76CEFE;enable-background:new    ;}
	.st13{opacity:0.4914;fill-rule:evenodd;clip-rule:evenodd;fill:#76CEFE;enable-background:new    ;}
	.st14{opacity:0.3686;fill-rule:evenodd;clip-rule:evenodd;fill:#76CEFE;enable-background:new    ;}
	.st15{opacity:0.2457;fill-rule:evenodd;clip-rule:evenodd;fill:#76CEFE;enable-background:new    ;}
	.st16{opacity:0.1229;fill-rule:evenodd;clip-rule:evenodd;fill:#76CEFE;enable-background:new    ;}
	.st17{opacity:0.76;fill-rule:evenodd;clip-rule:evenodd;fill:#76CEFE;enable-background:new    ;}
	.st18{opacity:0.6514;fill-rule:evenodd;clip-rule:evenodd;fill:#76CEFE;enable-background:new    ;}
	.st19{opacity:0.5429;fill-rule:evenodd;clip-rule:evenodd;fill:#76CEFE;enable-background:new    ;}
	.st20{opacity:0.4343;fill-rule:evenodd;clip-rule:evenodd;fill:#76CEFE;enable-background:new    ;}
	.st21{opacity:0.3257;fill-rule:evenodd;clip-rule:evenodd;fill:#76CEFE;enable-background:new    ;}
	.st22{opacity:0.2171;fill-rule:evenodd;clip-rule:evenodd;fill:#76CEFE;enable-background:new    ;}
	.st23{opacity:0.1086;fill-rule:evenodd;clip-rule:evenodd;fill:#76CEFE;enable-background:new    ;}
	.st24{opacity:0.64;fill-rule:evenodd;clip-rule:evenodd;fill:#76CEFE;enable-background:new    ;}
	.st25{opacity:0.5486;fill-rule:evenodd;clip-rule:evenodd;fill:#76CEFE;enable-background:new    ;}
	.st26{opacity:0.4571;fill-rule:evenodd;clip-rule:evenodd;fill:#76CEFE;enable-background:new    ;}
	.st27{opacity:0.3657;fill-rule:evenodd;clip-rule:evenodd;fill:#76CEFE;enable-background:new    ;}
	.st28{opacity:0.2743;fill-rule:evenodd;clip-rule:evenodd;fill:#76CEFE;enable-background:new    ;}
	.st29{opacity:0.1829;fill-rule:evenodd;clip-rule:evenodd;fill:#76CEFE;enable-background:new    ;}
	.st30{opacity:9.140000e-02;fill-rule:evenodd;clip-rule:evenodd;fill:#76CEFE;enable-background:new    ;}
	.st31{opacity:0.54;fill-rule:evenodd;clip-rule:evenodd;fill:#76CEFE;enable-background:new    ;}
	.st32{opacity:0.4629;fill-rule:evenodd;clip-rule:evenodd;fill:#76CEFE;enable-background:new    ;}
	.st33{opacity:0.3857;fill-rule:evenodd;clip-rule:evenodd;fill:#76CEFE;enable-background:new    ;}
	.st34{opacity:0.3086;fill-rule:evenodd;clip-rule:evenodd;fill:#76CEFE;enable-background:new    ;}
	.st35{opacity:0.2314;fill-rule:evenodd;clip-rule:evenodd;fill:#76CEFE;enable-background:new    ;}
	.st36{opacity:0.1543;fill-rule:evenodd;clip-rule:evenodd;fill:#76CEFE;enable-background:new    ;}
	.st37{opacity:7.710000e-02;fill-rule:evenodd;clip-rule:evenodd;fill:#76CEFE;enable-background:new    ;}
	.st38{opacity:0.44;fill-rule:evenodd;clip-rule:evenodd;fill:#76CEFE;enable-background:new    ;}
	.st39{opacity:0.3771;fill-rule:evenodd;clip-rule:evenodd;fill:#76CEFE;enable-background:new    ;}
	.st40{opacity:0.3143;fill-rule:evenodd;clip-rule:evenodd;fill:#76CEFE;enable-background:new    ;}
	.st41{opacity:0.2514;fill-rule:evenodd;clip-rule:evenodd;fill:#76CEFE;enable-background:new    ;}
	.st42{opacity:0.1886;fill-rule:evenodd;clip-rule:evenodd;fill:#76CEFE;enable-background:new    ;}
	.st43{opacity:0.1257;fill-rule:evenodd;clip-rule:evenodd;fill:#76CEFE;enable-background:new    ;}
	.st44{opacity:6.290000e-02;fill-rule:evenodd;clip-rule:evenodd;fill:#76CEFE;enable-background:new    ;}
	.st45{opacity:0.35;fill-rule:evenodd;clip-rule:evenodd;fill:#76CEFE;enable-background:new    ;}
	.st46{opacity:0.3;fill-rule:evenodd;clip-rule:evenodd;fill:#76CEFE;enable-background:new    ;}
	.st47{opacity:0.25;fill-rule:evenodd;clip-rule:evenodd;fill:#76CEFE;enable-background:new    ;}
	.st48{opacity:0.2;fill-rule:evenodd;clip-rule:evenodd;fill:#76CEFE;enable-background:new    ;}
	.st49{opacity:0.15;fill-rule:evenodd;clip-rule:evenodd;fill:#76CEFE;enable-background:new    ;}
	.st50{opacity:0.1;fill-rule:evenodd;clip-rule:evenodd;fill:#76CEFE;enable-background:new    ;}
	.st51{opacity:5.000000e-02;fill-rule:evenodd;clip-rule:evenodd;fill:#76CEFE;enable-background:new    ;}
	.st52{fill:none;stroke:#C700FE;stroke-width:2;stroke-miterlimit:10;}
	.st53{fill:none;stroke:#953AFE;stroke-width:2;stroke-miterlimit:10;}
	.st54{fill:none;stroke:#6475FE;stroke-width:2;stroke-miterlimit:10;}
	.st55{fill:none;stroke:#32AFFE;stroke-width:2;stroke-miterlimit:10;}
	.st56{fill:none;stroke:#00E9FE;stroke-width:2;stroke-miterlimit:10;}
	.st57{opacity:0.4;fill:none;stroke:#00E9FE;stroke-width:2;stroke-miterlimit:10;enable-background:new    ;}
	.st58{fill:none;stroke:url(#SVGID_4_);stroke-width:16;stroke-miterlimit:10;}
	.st59{fill:#00E9FE;}
	.st60{opacity:0.36;fill-rule:evenodd;clip-rule:evenodd;fill:#FFFFFF;enable-background:new    ;}
	.st61{opacity:0.31;fill-rule:evenodd;clip-rule:evenodd;fill:#C700FE;enable-background:new    ;}
	.st62{fill:none;stroke:#6475FE;stroke-width:6;stroke-linecap:round;stroke-linejoin:round;stroke-miterlimit:10;}
	.st63{fill-rule:evenodd;clip-rule:evenodd;fill:#382B25;}
	.st64{fill-rule:evenodd;clip-rule:evenodd;fill:#D4AB7E;}
	.st65{fill-rule:evenodd;clip-rule:evenodd;fill:#C07E57;}
	.st66{fill-rule:evenodd;clip-rule:evenodd;fill:#C68E77;}
	.st67{fill-rule:evenodd;clip-rule:evenodd;fill:#3C2B1D;}
	.st68{fill-rule:evenodd;clip-rule:evenodd;fill:#FFFFFF;}
	.st69{fill-rule:evenodd;clip-rule:evenodd;fill:#412D1E;}
	.st70{fill-rule:evenodd;clip-rule:evenodd;fill:#2E2319;}
	.st71{fill-rule:evenodd;clip-rule:evenodd;fill:#593D23;}
	.st72{fill-rule:evenodd;clip-rule:evenodd;fill:#6D4E35;}
</style>
<g id="BACKGROUND">
	
		<radialGradient id="SVGID_1_" cx="889.0535" cy="-409.8832" r="1270.0266" gradientTransform="matrix(1 0 0 -1 0 722)" gradientUnits="userSpaceOnUse">
		<stop  offset="0" style="stop-color:#EAC6FF"/>
		<stop  offset="0.1133" style="stop-color:#BA80E4"/>
		<stop  offset="0.1356" style="stop-color:#B072DF"/>
		<stop  offset="0.1968" style="stop-color:#71C4D0"/>
		<stop  offset="0.3843" style="stop-color:#6096B0"/>
		<stop  offset="1" style="stop-color:#290047"/>
	</radialGradient>
	<rect class="st0" width="1280" height="720"/>
</g>
<g id="OBJECTS">
	<g>
		<g>
			<g>
				<defs>
					<rect id="SVGID_2_" width="1280" height="720"/>
				</defs>
				<clipPath id="SVGID_3_">
					<use xlink:href="#SVGID_2_"  style="overflow:visible;"/>
				</clipPath>
				<g class="st1">
					<g>
						<g>
							<rect x="858.3" y="526.5" class="st2" width="14" height="14"/>
							<rect x="899.8" y="526.5" class="st3" width="14" height="14"/>
							<rect x="941.3" y="526.5" class="st4" width="14" height="14"/>
							<rect x="982.8" y="526.5" class="st5" width="14" height="14"/>
							<rect x="1024.3" y="526.5" class="st6" width="13.9" height="14"/>
							<rect x="1065.8" y="526.5" class="st7" width="13.9" height="14"/>
							<rect x="1107.4" y="526.5" class="st8" width="13.9" height="14"/>
							<rect x="1148.9" y="526.5" class="st9" width="13.9" height="14"/>
						</g>
						<g>
							<rect x="858.3" y="566.7" class="st2" width="14" height="14"/>
							<rect x="899.8" y="566.7" class="st3" width="14" height="14"/>
							<rect x="941.3" y="566.7" class="st4" width="14" height="14"/>
							<rect x="982.8" y="566.7" class="st5" width="14" height="14"/>
							<rect x="1024.3" y="566.7" class="st6" width="13.9" height="14"/>
							<rect x="1065.8" y="566.7" class="st7" width="13.9" height="14"/>
							<rect x="1107.4" y="566.7" class="st8" width="13.9" height="14"/>
							<rect x="1148.9" y="566.7" class="st9" width="13.9" height="14"/>
						</g>
						<g>
							<rect x="858.3" y="607" class="st10" width="14" height="14"/>
							<rect x="899.8" y="607" class="st11" width="14" height="14"/>
							<rect x="941.3" y="607" class="st12" width="14" height="14"/>
							<rect x="982.8" y="607" class="st13" width="14" height="14"/>
							<rect x="1024.3" y="607" class="st14" width="13.9" height="14"/>
							<rect x="1065.8" y="607" class="st15" width="13.9" height="14"/>
							<rect x="1107.4" y="607" class="st16" width="13.9" height="14"/>
							<rect x="1148.9" y="607" class="st9" width="13.9" height="14"/>
						</g>
						<g>
							<rect x="858.3" y="647.2" class="st17" width="14" height="14"/>
							<rect x="899.8" y="647.2" class="st18" width="14" height="14"/>
							<rect x="941.3" y="647.2" class="st19" width="14" height="14"/>
							<rect x="982.8" y="647.2" class="st20" width="14" height="14"/>
							<rect x="1024.3" y="647.2" class="st21" width="13.9" height="14"/>
							<rect x="1065.8" y="647.2" class="st22" width="13.9" height="14"/>
							<rect x="1107.4" y="647.2" class="st23" width="13.9" height="14"/>
							<rect x="1148.9" y="647.2" class="st9" width="13.9" height="14"/>
						</g>
						<g>
							<rect x="858.3" y="687.4" class="st24" width="14" height="14"/>
							<rect x="899.8" y="687.4" class="st25" width="14" height="14"/>
							<rect x="941.3" y="687.4" class="st26" width="14" height="14"/>
							<rect x="982.8" y="687.4" class="st27" width="14" height="14"/>
							<rect x="1024.3" y="687.4" class="st28" width="13.9" height="14"/>
							<rect x="1065.8" y="687.4" class="st29" width="13.9" height="14"/>
							<rect x="1107.4" y="687.4" class="st30" width="13.9" height="14"/>
							<rect x="1148.9" y="687.4" class="st9" width="13.9" height="14"/>
						</g>
						<g>
							<rect x="858.3" y="727.7" class="st31" width="14" height="14"/>
							<rect x="899.8" y="727.7" class="st32" width="14" height="14"/>
							<rect x="941.3" y="727.7" class="st33" width="14" height="14"/>
							<rect x="982.8" y="727.7" class="st34" width="14" height="14"/>
							<rect x="1024.3" y="727.7" class="st35" width="13.9" height="14"/>
							<rect x="1065.8" y="727.7" class="st36" width="13.9" height="14"/>
							<rect x="1107.4" y="727.7" class="st37" width="13.9" height="14"/>
							<rect x="1148.9" y="727.7" class="st9" width="13.9" height="14"/>
						</g>
						<g>
							<rect x="858.3" y="767.9" class="st38" width="14" height="14"/>
							<rect x="899.8" y="767.9" class="st39" width="14" height="14"/>
							<rect x="941.3" y="767.9" class="st40" width="14" height="14"/>
							<rect x="982.8" y="767.9" class="st41" width="14" height="14"/>
							<rect x="1024.3" y="767.9" class="st42" width="13.9" height="14"/>
							<rect x="1065.8" y="767.9" class="st43" width="13.9" height="14"/>
							<rect x="1107.4" y="767.9" class="st44" width="13.9" height="14"/>
							<rect x="1148.9" y="767.9" class="st9" width="13.9" height="14"/>
						</g>
						<g>
							<rect x="858.3" y="808.2" class="st45" width="14" height="14"/>
							<rect x="899.8" y="808.2" class="st46" width="14" height="14"/>
							<rect x="941.3" y="808.2" class="st47" width="14" height="14"/>
							<rect x="982.8" y="808.2" class="st48" width="14" height="14"/>
							<rect x="1024.3" y="808.2" class="st49" width="13.9" height="14"/>
							<rect x="1065.8" y="808.2" class="st50" width="13.9" height="14"/>
							<rect x="1107.4" y="808.2" class="st51" width="13.9" height="14"/>
							<rect x="1148.9" y="808.2" class="st9" width="13.9" height="14"/>
						</g>
					</g>
					<g>
						<g>
							<rect x="-49.2" y="-182.8" class="st2" width="14" height="13.9"/>
							<rect x="-7.7" y="-182.8" class="st3" width="13.9" height="13.9"/>
							<rect x="33.9" y="-182.8" class="st4" width="14" height="13.9"/>
							<rect x="75.4" y="-182.8" class="st5" width="13.9" height="13.9"/>
							<rect x="116.9" y="-182.8" class="st6" width="14" height="13.9"/>
							<rect x="158.4" y="-182.8" class="st7" width="13.9" height="13.9"/>
							<rect x="199.9" y="-182.8" class="st8" width="13.9" height="13.9"/>
							<rect x="241.4" y="-182.8" class="st9" width="13.9" height="13.9"/>
						</g>
						<g>
							<rect x="-49.2" y="-142.5" class="st2" width="14" height="13.9"/>
							<rect x="-7.7" y="-142.5" class="st3" width="13.9" height="13.9"/>
							<rect x="33.9" y="-142.5" class="st4" width="14" height="13.9"/>
							<rect x="75.4" y="-142.5" class="st5" width="13.9" height="13.9"/>
							<rect x="116.9" y="-142.5" class="st6" width="14" height="13.9"/>
							<rect x="158.4" y="-142.5" class="st7" width="13.9" height="13.9"/>
							<rect x="199.9" y="-142.5" class="st8" width="13.9" height="13.9"/>
							<rect x="241.4" y="-142.5" class="st9" width="13.9" height="13.9"/>
						</g>
						<g>
							<rect x="-49.2" y="-102.3" class="st10" width="14" height="13.9"/>
							<rect x="-7.7" y="-102.3" class="st11" width="13.9" height="13.9"/>
							<rect x="33.9" y="-102.3" class="st12" width="14" height="13.9"/>
							<rect x="75.4" y="-102.3" class="st13" width="13.9" height="13.9"/>
							<rect x="116.9" y="-102.3" class="st14" width="14" height="13.9"/>
							<rect x="158.4" y="-102.3" class="st15" width="13.9" height="13.9"/>
							<rect x="199.9" y="-102.3" class="st16" width="13.9" height="13.9"/>
							<rect x="241.4" y="-102.3" class="st9" width="13.9" height="13.9"/>
						</g>
						<g>
							<rect x="-49.2" y="-62" class="st17" width="14" height="14"/>
							<rect x="-7.7" y="-62" class="st18" width="13.9" height="14"/>
							<rect x="33.9" y="-62" class="st19" width="14" height="14"/>
							<rect x="75.4" y="-62" class="st20" width="13.9" height="14"/>
							<rect x="116.9" y="-62" class="st21" width="14" height="14"/>
							<rect x="158.4" y="-62" class="st22" width="13.9" height="14"/>
							<rect x="199.9" y="-62" class="st23" width="13.9" height="14"/>
							<rect x="241.4" y="-62" class="st9" width="13.9" height="14"/>
						</g>
						<g>
							<rect x="-49.2" y="-21.8" class="st24" width="14" height="13.9"/>
							<rect x="-7.7" y="-21.8" class="st25" width="13.9" height="13.9"/>
							<rect x="33.9" y="-21.8" class="st26" width="14" height="13.9"/>
							<rect x="75.4" y="-21.8" class="st27" width="13.9" height="13.9"/>
							<rect x="116.9" y="-21.8" class="st28" width="14" height="13.9"/>
							<rect x="158.4" y="-21.8" class="st29" width="13.9" height="13.9"/>
							<rect x="199.9" y="-21.8" class="st30" width="13.9" height="13.9"/>
							<rect x="241.4" y="-21.8" class="st9" width="13.9" height="13.9"/>
						</g>
						<g>
							<rect x="-49.2" y="18.5" class="st31" width="14" height="14"/>
							<rect x="-7.7" y="18.5" class="st32" width="13.9" height="14"/>
							<rect x="33.9" y="18.5" class="st33" width="14" height="14"/>
							<rect x="75.4" y="18.5" class="st34" width="13.9" height="14"/>
							<rect x="116.9" y="18.5" class="st35" width="14" height="14"/>
							<rect x="158.4" y="18.5" class="st36" width="13.9" height="14"/>
							<rect x="199.9" y="18.5" class="st37" width="13.9" height="14"/>
							<rect x="241.4" y="18.5" class="st9" width="13.9" height="14"/>
						</g>
						<g>
							<rect x="-49.2" y="58.7" class="st38" width="14" height="13.9"/>
							<rect x="-7.7" y="58.7" class="st39" width="13.9" height="13.9"/>
							<rect x="33.9" y="58.7" class="st40" width="14" height="13.9"/>
							<rect x="75.4" y="58.7" class="st41" width="13.9" height="13.9"/>
							<rect x="116.9" y="58.7" class="st42" width="14" height="13.9"/>
							<rect x="158.4" y="58.7" class="st43" width="13.9" height="13.9"/>
							<rect x="199.9" y="58.7" class="st44" width="13.9" height="13.9"/>
							<rect x="241.4" y="58.7" class="st9" width="13.9" height="13.9"/>
						</g>
						<g>
							<rect x="-49.2" y="99" class="st45" width="14" height="13.9"/>
							<rect x="-7.7" y="99" class="st46" width="13.9" height="13.9"/>
							<rect x="33.9" y="99" class="st47" width="14" height="13.9"/>
							<rect x="75.4" y="99" class="st48" width="13.9" height="13.9"/>
							<rect x="116.9" y="99" class="st49" width="14" height="13.9"/>
							<rect x="158.4" y="99" class="st50" width="13.9" height="13.9"/>
							<rect x="199.9" y="99" class="st51" width="13.9" height="13.9"/>
							<rect x="241.4" y="99" class="st9" width="13.9" height="13.9"/>
						</g>
					</g>
					<g>
						<g>
							<rect x="340.9" y="650.7" class="st2" width="8.6" height="8.6"/>
							<rect x="315.3" y="650.7" class="st3" width="8.6" height="8.6"/>
							<rect x="289.8" y="650.7" class="st4" width="8.6" height="8.6"/>
							<rect x="264.2" y="650.7" class="st5" width="8.6" height="8.6"/>
							<rect x="238.6" y="650.7" class="st6" width="8.6" height="8.6"/>
							<rect x="213" y="650.7" class="st7" width="8.6" height="8.6"/>
							<rect x="187.5" y="650.7" class="st8" width="8.6" height="8.6"/>
							<rect x="161.9" y="650.7" class="st9" width="8.6" height="8.6"/>
						</g>
						<g>
							<rect x="316.6" y="675.5" class="st10" width="8.6" height="8.6"/>
							<rect x="291.1" y="675.5" class="st11" width="8.6" height="8.6"/>
							<rect x="265.5" y="675.5" class="st12" width="8.6" height="8.6"/>
							<rect x="239.9" y="675.5" class="st13" width="8.6" height="8.6"/>
							<rect x="214.4" y="675.5" class="st14" width="8.6" height="8.6"/>
							<rect x="188.8" y="675.5" class="st15" width="8.6" height="8.6"/>
							<rect x="163.2" y="675.5" class="st16" width="8.6" height="8.6"/>
							<rect x="137.7" y="675.5" class="st9" width="8.6" height="8.6"/>
						</g>
					</g>
					<g>
						<g>
							<rect x="1139.5" y="98.8" class="st2" width="8.6" height="8.6"/>
							<rect x="1165" y="98.8" class="st3" width="8.6" height="8.6"/>
							<rect x="1190.6" y="98.8" class="st4" width="8.6" height="8.6"/>
							<rect x="1216.2" y="98.8" class="st5" width="8.6" height="8.6"/>
							<rect x="1241.7" y="98.8" class="st6" width="8.6" height="8.6"/>
							<rect x="1267.3" y="98.8" class="st7" width="8.6" height="8.6"/>
							<rect x="1292.9" y="98.8" class="st8" width="8.6" height="8.6"/>
							<rect x="1318.4" y="98.8" class="st9" width="8.6" height="8.6"/>
						</g>
						<g>
							<rect x="1139.5" y="74.1" class="st2" width="8.6" height="8.6"/>
							<rect x="1165" y="74.1" class="st3" width="8.6" height="8.6"/>
							<rect x="1190.6" y="74.1" class="st4" width="8.6" height="8.6"/>
							<rect x="1216.2" y="74.1" class="st5" width="8.6" height="8.6"/>
							<rect x="1241.7" y="74.1" class="st6" width="8.6" height="8.6"/>
							<rect x="1267.3" y="74.1" class="st7" width="8.6" height="8.6"/>
							<rect x="1292.9" y="74.1" class="st8" width="8.6" height="8.6"/>
							<rect x="1318.4" y="74.1" class="st9" width="8.6" height="8.6"/>
						</g>
						<g>
							<rect x="1139.5" y="49.3" class="st10" width="8.6" height="8.6"/>
							<rect x="1165" y="49.3" class="st11" width="8.6" height="8.6"/>
							<rect x="1190.6" y="49.3" class="st12" width="8.6" height="8.6"/>
							<rect x="1216.2" y="49.3" class="st13" width="8.6" height="8.6"/>
							<rect x="1241.7" y="49.3" class="st14" width="8.6" height="8.6"/>
							<rect x="1267.3" y="49.3" class="st15" width="8.6" height="8.6"/>
							<rect x="1292.9" y="49.3" class="st16" width="8.6" height="8.6"/>
							<rect x="1318.4" y="49.3" class="st9" width="8.6" height="8.6"/>
						</g>
						<g>
							<rect x="1139.5" y="24.5" class="st17" width="8.6" height="8.6"/>
							<rect x="1165" y="24.5" class="st18" width="8.6" height="8.6"/>
							<rect x="1190.6" y="24.5" class="st19" width="8.6" height="8.6"/>
							<rect x="1216.2" y="24.5" class="st20" width="8.6" height="8.6"/>
							<rect x="1241.7" y="24.5" class="st21" width="8.6" height="8.6"/>
							<rect x="1267.3" y="24.5" class="st22" width="8.6" height="8.6"/>
							<rect x="1292.9" y="24.5" class="st23" width="8.6" height="8.6"/>
							<rect x="1318.4" y="24.5" class="st9" width="8.6" height="8.6"/>
						</g>
						<g>
							<rect x="1139.5" y="-0.3" class="st24" width="8.6" height="8.6"/>
							<rect x="1165" y="-0.3" class="st25" width="8.6" height="8.6"/>
							<rect x="1190.6" y="-0.3" class="st26" width="8.6" height="8.6"/>
							<rect x="1216.2" y="-0.3" class="st27" width="8.6" height="8.6"/>
							<rect x="1241.7" y="-0.3" class="st28" width="8.6" height="8.6"/>
							<rect x="1267.3" y="-0.3" class="st29" width="8.6" height="8.6"/>
							<rect x="1292.9" y="-0.3" class="st30" width="8.6" height="8.6"/>
							<rect x="1318.4" y="-0.3" class="st9" width="8.6" height="8.6"/>
						</g>
						<g>
							<rect x="1139.5" y="-25.1" class="st31" width="8.6" height="8.6"/>
							<rect x="1165" y="-25.1" class="st32" width="8.6" height="8.6"/>
							<rect x="1190.6" y="-25.1" class="st33" width="8.6" height="8.6"/>
							<rect x="1216.2" y="-25.1" class="st34" width="8.6" height="8.6"/>
							<rect x="1241.7" y="-25.1" class="st35" width="8.6" height="8.6"/>
							<rect x="1267.3" y="-25.1" class="st36" width="8.6" height="8.6"/>
							<rect x="1292.9" y="-25.1" class="st37" width="8.6" height="8.6"/>
							<rect x="1318.4" y="-25.1" class="st9" width="8.6" height="8.6"/>
						</g>
						<g>
							<rect x="1139.5" y="-49.9" class="st38" width="8.6" height="8.6"/>
							<rect x="1165" y="-49.9" class="st39" width="8.6" height="8.6"/>
							<rect x="1190.6" y="-49.9" class="st40" width="8.6" height="8.6"/>
							<rect x="1216.2" y="-49.9" class="st41" width="8.6" height="8.6"/>
							<rect x="1241.7" y="-49.9" class="st42" width="8.6" height="8.6"/>
							<rect x="1267.3" y="-49.9" class="st43" width="8.6" height="8.6"/>
							<rect x="1292.9" y="-49.9" class="st44" width="8.6" height="8.6"/>
							<rect x="1318.4" y="-49.9" class="st9" width="8.6" height="8.6"/>
						</g>
						<g>
							<rect x="1139.5" y="-74.7" class="st45" width="8.6" height="8.6"/>
							<rect x="1165" y="-74.7" class="st46" width="8.6" height="8.6"/>
							<rect x="1190.6" y="-74.7" class="st47" width="8.6" height="8.6"/>
							<rect x="1216.2" y="-74.7" class="st48" width="8.6" height="8.6"/>
							<rect x="1241.7" y="-74.7" class="st49" width="8.6" height="8.6"/>
							<rect x="1267.3" y="-74.7" class="st50" width="8.6" height="8.6"/>
							<rect x="1292.9" y="-74.7" class="st51" width="8.6" height="8.6"/>
							<rect x="1318.4" y="-74.7" class="st9" width="8.6" height="8.6"/>
						</g>
					</g>
					<g>
						<g>
							<rect x="688.7" y="42.6" class="st2" width="8.6" height="8.6"/>
							<rect x="663.1" y="42.6" class="st3" width="8.6" height="8.6"/>
							<rect x="637.5" y="42.6" class="st4" width="8.6" height="8.6"/>
							<rect x="612" y="42.6" class="st5" width="8.6" height="8.6"/>
							<rect x="586.4" y="42.6" class="st6" width="8.6" height="8.6"/>
							<rect x="560.8" y="42.6" class="st7" width="8.6" height="8.6"/>
							<rect x="535.3" y="42.6" class="st8" width="8.6" height="8.6"/>
							<rect x="509.7" y="42.6" class="st9" width="8.6" height="8.6"/>
						</g>
						<g>
							<rect x="664.5" y="67.4" class="st10" width="8.6" height="8.6"/>
							<rect x="638.9" y="67.4" class="st11" width="8.6" height="8.6"/>
							<rect x="613.3" y="67.4" class="st12" width="8.6" height="8.6"/>
							<rect x="587.8" y="67.4" class="st13" width="8.6" height="8.6"/>
							<rect x="562.2" y="67.4" class="st14" width="8.6" height="8.6"/>
							<rect x="536.6" y="67.4" class="st15" width="8.6" height="8.6"/>
							<rect x="511" y="67.4" class="st16" width="8.6" height="8.6"/>
							<rect x="485.5" y="67.4" class="st9" width="8.6" height="8.6"/>
						</g>
					</g>
				</g>
			</g>
		</g>
		<g>
			<g>
				<polygon class="st52" points="835.8,32.9 854.7,49.3 835.8,65.7 				"/>
				<polygon class="st53" points="908.3,49.3 889.3,65.7 889.3,32.9 				"/>
				<polygon class="st54" points="961.8,49.3 942.9,65.7 942.9,32.9 				"/>
				<polygon class="st55" points="1015.3,49.3 996.4,65.7 996.4,32.9 				"/>
				<polygon class="st56" points="1050,32.9 1068.9,49.3 1050,65.7 				"/>
			</g>
			<g>
				<polygon class="st52" points="74.1,578.9 93,595.3 74.1,611.7 				"/>
				<polygon class="st53" points="146.6,595.3 127.6,611.7 127.6,578.9 				"/>
				<polygon class="st54" points="200.1,595.3 181.2,611.7 181.2,578.9 				"/>
				<polygon class="st55" points="253.7,595.3 234.7,611.7 234.7,578.9 				"/>
				<polygon class="st56" points="288.3,578.9 307.2,595.3 288.3,611.7 				"/>
			</g>
			<g>
				<polygon class="st52" points="415,134.8 433.9,151.2 415,167.6 				"/>
				<polygon class="st53" points="487.5,151.2 468.5,167.6 468.5,134.8 				"/>
				<polygon class="st54" points="541,151.2 522.1,167.6 522.1,134.8 				"/>
				<polygon class="st55" points="594.6,151.2 575.6,167.6 575.6,134.8 				"/>
				<polygon class="st56" points="629.2,134.8 648.1,151.2 629.2,167.6 				"/>
			</g>
		</g>
		<g>
			<path class="st56" d="M628.2,580.6l17.9-1.9c4.9-0.5,8.5-4.9,8-9.9s-4.9-8.5-9.9-8l-17.9,1.9l-1.9-17.9c-0.5-4.9-4.9-8.5-9.9-8
				s-8.5,4.9-8,9.9l1.9,17.9l-17.9,1.9c-4.9,0.5-8.5,4.9-8,9.9c0.3,2.5,1.5,4.6,3.3,6s4.1,2.2,6.6,2l17.9-1.9l1.9,17.9
				c0.3,2.5,1.5,4.6,3.3,6c1.8,1.5,4.1,2.2,6.6,2c4.9-0.5,8.5-4.9,8-9.9L628.2,580.6z"/>
			<path class="st57" d="M122.8,188.6l14.1,11.1c3.9,3.1,9.6,2.4,12.6-1.5s2.4-9.6-1.5-12.6l-14.1-11.1l11.1-14.1
				c3.1-3.9,2.4-9.6-1.5-12.6c-3.9-3.1-9.6-2.4-12.6,1.5l-11.1,14.1l-14.1-11.1c-3.9-3.1-9.6-2.4-12.6,1.5c-1.5,1.9-2.1,4.3-1.8,6.6
				c0.3,2.3,1.4,4.5,3.4,6l14.1,11.1l-11.1,14.1c-1.5,1.9-2.1,4.3-1.8,6.6c0.3,2.3,1.4,4.5,3.4,6c3.9,3.1,9.6,2.4,12.6-1.5
				L122.8,188.6z"/>
			<path class="st57" d="M322,109.7l7.5-3.1c2.1-0.8,3.1-3.2,2.2-5.3c-0.9-2.1-3.2-3.1-5.3-2.2l-7.5,3.1l-3.1-7.5
				c-0.9-2.1-3.2-3.1-5.3-2.2s-3.1,3.2-2.2,5.3l3.1,7.5l-7.5,3.1c-2.1,0.8-3.1,3.2-2.2,5.3c0.4,1,1.2,1.8,2.2,2.2s2.1,0.4,3.1,0
				l7.5-3.1l3.1,7.5c0.4,1,1.2,1.8,2.2,2.2s2.1,0.4,3.1,0c2.1-0.8,3.1-3.2,2.2-5.3L322,109.7z"/>
			<path class="st57" d="M499.4,631.9l7.5-3.1c2.1-0.8,3.1-3.2,2.2-5.3c-0.9-2.1-3.2-3.1-5.3-2.2l-7.5,3.1l-3.1-7.5
				c-0.9-2.1-3.2-3.1-5.3-2.2c-2.1,0.8-3.1,3.2-2.2,5.3l3.1,7.5l-7.5,3.1c-2.1,0.8-3.1,3.2-2.2,5.3c0.4,1,1.2,1.8,2.2,2.2
				s2.1,0.4,3.1,0l7.5-3.1l3.1,7.5c0.4,1,1.2,1.8,2.2,2.2s2.1,0.4,3.1,0c2.1-0.8,3.1-3.2,2.2-5.3L499.4,631.9z"/>
		</g>
		<g>
			
				<radialGradient id="SVGID_4_" cx="337.5824" cy="308.2281" r="242.1035" gradientTransform="matrix(1 0 0 -1 0 722)" gradientUnits="userSpaceOnUse">
				<stop  offset="0" style="stop-color:#FFFFFF"/>
				<stop  offset="0.2142" style="stop-color:#00D4FA"/>
				<stop  offset="0.5813" style="stop-color:#007387"/>
				<stop  offset="1" style="stop-color:#000000"/>
			</radialGradient>
			<polygon class="st58" points="86,209 593.3,209.6 406.6,611.5 			"/>
			<g>
				<g>
					<g>
						<path class="st59" d="M565.5,483.9c-1.3,0-2.3-1-2.3-2.3v-7.8c0-1.3,1-2.3,2.3-2.3c1.3,0,2.3,1,2.3,2.3v7.8
							C567.8,482.8,566.7,483.9,565.5,483.9z"/>
						<path class="st59" d="M584,506.8h-37.1c-0.7,0-1.3-0.6-1.3-1.3l0,0c0-0.7,0.6-1.3,1.3-1.3H584c0.7,0,1.3,0.6,1.3,1.3l0,0
							C585.3,506.2,584.7,506.8,584,506.8z"/>
						<path class="st59" d="M577.4,488c0-4.9-2.9-9.1-7.5-10.9c-2.6-1-5.1-1.1-7.8-0.3c-2.2,0.6-4.2,1.8-5.7,3.4
							c-2,2.1-2.9,4.9-2.9,7.8c0,15.1-4.4,17.5-4.4,17.5h16.1h0.3h16.1C581.8,505.5,577.4,503.2,577.4,488z"/>
						<path class="st59" d="M569.4,508.3c0,2.3-1.9,4.2-4.2,4.2c-2.3,0-4.2-1.9-4.2-4.2s1.9-4.2,4.2-4.2
							C567.5,504,569.4,505.9,569.4,508.3z"/>
					</g>
					<g>
						<path class="st59" d="M580,480.4c-0.8,0-1.5-0.7-1.5-1.5c0-3.5-2.9-6.4-6.4-6.4c-0.8,0-1.5-0.7-1.5-1.5c0-0.8,0.7-1.5,1.5-1.5
							c5.2,0,9.4,4.2,9.4,9.4C581.6,479.7,580.9,480.4,580,480.4z"/>
						<path class="st59" d="M586.2,480.4c-0.8,0-1.5-0.7-1.5-1.5c0-6.9-5.6-12.5-12.5-12.5c-0.8,0-1.5-0.7-1.5-1.5
							c0-0.8,0.7-1.5,1.5-1.5c8.6,0,15.5,7,15.5,15.5C587.7,479.7,587,480.4,586.2,480.4z"/>
						<path class="st59" d="M592,480.4c-0.8,0-1.5-0.7-1.5-1.5c0-10.1-8.2-18.4-18.4-18.4c-0.8,0-1.5-0.7-1.5-1.5
							c0-0.8,0.7-1.5,1.5-1.5c11.8,0,21.4,9.6,21.4,21.4C593.6,479.7,592.9,480.4,592,480.4z"/>
					</g>
				</g>
			</g>
		</g>
		<g>
			<circle class="st60" cx="943.8" cy="368" r="185"/>
			<circle class="st61" cx="943.8" cy="368" r="163.3"/>
			<circle class="st62" cx="945.6" cy="368.8" r="174.4"/>
		</g>
	</g>
	<g id="OBJECTS_1_">
		<g>
			<g>
				<g>
					<path class="st63" d="M943.4,408.1c9.2,28.7,27.1,44.8,58.6,52.5c-8.1-11.5-5.2-28.5,8.4-35.9c13.6-7.3,28.6-14.5,28.5-29.2
						c-0.1-23-18-20.3-7.6-35.2c10.4-14.9,11.1-40-7.7-52.2c-0.3-0.2-0.5-0.3-0.8-0.5c-3.5-3.3-6-4.1-2-10.7
						c26.4-43.4-53.6-85.8-76.9-50.7c-5.1-7-14.3-14.3-30.3-12.6c-9.9,1.1-35.3,11.2-46.5,29.2c-18.7,29.9,9.2,29.4-4.3,45
						c-1.4,1.1-2.8,2.3-3.9,3.8c-0.2,0.1-0.3,0.3-0.5,0.4c-17.7,13.5-13.3,33.5-3,48.3s-9.7,15.1-10.1,34.4
						c-0.4,19.9,21,23.7,34.6,31c13.6,7.3,12.9,23.3,4.8,34.8C916.3,453,934.2,436.8,943.4,408.1z"/>
					<path class="st64" d="M942.2,488.9h101.2c0-92.7-75.5-42.7-75.5-119.9h-25.7h-26.1c0,77.2-75.1,27.2-75.1,119.9L942.2,488.9
						L942.2,488.9z"/>
					<path class="st64" d="M886.8,322c-0.2-2.6-11.3-5.7-14.9,2.9c-3.7,8.6,2.9,20.7,15.4,21.6s8.8-1.2,8.8-1.2L886.8,322z"/>
					<path class="st64" d="M997.8,322c0.2-2.6,11.3-5.7,14.9,2.9c3.7,8.6-2.9,20.7-15.4,21.6c-12.5,1-8.8-1.2-8.8-1.2L997.8,322z"/>
					<path class="st65" d="M968.3,366.8c0,0-0.1,3.6-0.1,8.8c-9.9,24.3-40.8,27-52.2,1c0.1-5.8,0-9.8,0-9.8
						C933.4,366.8,950.9,366.8,968.3,366.8z"/>
					<path class="st64" d="M942.2,379.7c-64.8,1.5-97.6-154.2,0-150.2C1039.8,225.5,1007,381.2,942.2,379.7z"/>
					<path class="st63" d="M912.9,311.3c0.1,0.9-0.6,1.8-1.6,1.9c-1,0.1-1.8-0.6-1.9-1.5c-0.1-0.9,0-1.8,0.2-2.6
						c0.2-0.8,0.6-1.7,1.2-2.4c1.2-1.6,3-2.6,4.9-3c1.9-0.3,3.9,0.1,5.6,1.3c1.1,0.8,1.9,1.7,2.4,2.8c0.5,1.1,0.8,2.4,0.7,3.6
						c-0.1,0.9-0.9,1.7-1.9,1.6s-1.7-0.9-1.6-1.8c0-0.7-0.1-1.4-0.4-2c-0.3-0.6-0.7-1.1-1.3-1.5c-0.9-0.6-2-0.9-3-0.7
						c-1,0.2-2,0.7-2.7,1.6c-0.3,0.4-0.5,0.8-0.6,1.3C912.9,310.4,912.9,310.9,912.9,311.3z"/>
					<path class="st66" d="M913.2,325.1c3.3,2.5,3.5,6.1,0.3,8.1s-8.4,1.6-11.7-0.9c-3.3-2.5-3.5-6.1-0.3-8.1
						C904.7,322.2,909.9,322.6,913.2,325.1z"/>
					<path class="st66" d="M971.5,325.1c-3.3,2.5-3.5,6.1-0.3,8.1s8.4,1.6,11.7-0.9c3.3-2.5,3.5-6.1,0.3-8.1
						C980,322.2,974.8,322.6,971.5,325.1z"/>
					<path class="st67" d="M922.9,289.2c-0.2-0.1-0.4-0.2-0.7-0.3c-2.5-0.9-4.7-1.1-7.4-0.9c-2.7,0.3-4.7,0.9-6.9,2.1
						c-1,0.7-5.1,3.9-4,5.1c0.5,0.1,4.5-1.9,5.8-2.3c1.9-0.5,3.4-0.7,5.4-0.7c1.8,0.1,3.2,0.3,4.9,1c0,0,0.3,0.1,0.4,0.2
						c3.4,1.6,3.1,2.7,5.4,1.1C929.4,292.6,925.7,290.6,922.9,289.2z"/>
					<path class="st67" d="M961.4,289.2c0.2-0.1,0.4-0.2,0.7-0.3c2.5-0.9,4.7-1.1,7.4-0.9c2.7,0.3,4.7,0.9,6.9,2.1
						c1,0.7,5.1,3.9,4,5.1c-0.5,0.1-4.5-1.9-5.8-2.3c-1.9-0.5-3.4-0.7-5.4-0.7c-1.8,0.1-3.2,0.3-4.9,1c0,0-0.3,0.1-0.4,0.2
						c-3.4,1.6-3.1,2.7-5.4,1.1C955,292.6,958.6,290.6,961.4,289.2z"/>
					<path class="st68" d="M925.3,338.3c6-0.1,11.9-0.1,17.9-0.1s11.9,0,17.9,0.1c0,9.1-9.3,12.4-17.8,12.4h0h0
						C934.6,350.7,925.3,347.4,925.3,338.3z"/>
					<path class="st65" d="M939.1,356.1c-0.3-0.2-0.4-0.6-0.3-0.9c0.2-0.3,0.6-0.4,1-0.3c1,0.5,2.2,0.8,3.4,0.8s2.4-0.3,3.4-0.8
						c0.3-0.2,0.8-0.1,1,0.2c0.2,0.3,0.1,0.7-0.2,0.9c-1.2,0.7-2.6,1-4.1,1C941.8,357.1,940.3,356.8,939.1,356.1z"/>
					<path class="st65" d="M941.6,325.8c-0.4,0-0.7-0.3-0.7-0.7c0-0.4,0.3-0.7,0.7-0.7c1.7,0,3.7,0,5.3-0.3c1.3-0.2,2.2-0.5,2.2-1.1
						c0-2-2-14.2-2-14.3c-0.1-0.4,0.2-0.7,0.6-0.8c0.4-0.1,0.7,0.2,0.8,0.6c0,0,2.1,12.4,2.1,14.5c0,1.5-1.5,2.1-3.4,2.5
						C945.4,325.7,943.4,325.8,941.6,325.8z"/>
					<path class="st65" d="M1008.7,331.6c0,0.4-0.3,0.7-0.7,0.7c-0.4,0-0.7-0.3-0.7-0.7c0-2.1-0.4-3.4-1-4.1
						c-0.3-0.4-0.8-0.6-1.3-0.6c-0.6,0-1.2,0.2-1.9,0.6c-1.8,1-3.8,3.2-4.8,5.5c-0.5,1.1-1,2.3-1.2,3.2c1.1-0.7,2.3-1,3.3-0.9
						c0.6,0.1,1.1,0.2,1.5,0.5c0.4,0.3,0.8,0.7,1,1.3c0.3,0.9,0.1,2.2-1,3.7c-0.2,0.3-0.7,0.4-1,0.2c-0.3-0.2-0.4-0.6-0.2-1
						c0.8-1.1,1-2,0.8-2.5c-0.1-0.3-0.2-0.4-0.4-0.6c-0.2-0.1-0.5-0.3-0.8-0.3c-0.9-0.1-2,0.3-3,1.2c-0.3,0.3-0.5,0.4-0.7,0.4
						c-0.6,0.1-0.9-0.1-1-0.7l0,0c0-0.2,0-0.5,0-0.8c0.2-1,0.8-2.7,1.5-4.3c1.2-2.6,3.3-5,5.4-6.2c0.9-0.5,1.8-0.8,2.6-0.7
						c0.9,0,1.7,0.4,2.4,1.1C1008.2,327.6,1008.7,329.2,1008.7,331.6z"/>
					<path class="st65" d="M877,331.6c0,0.4-0.3,0.7-0.7,0.7c-0.4,0-0.7-0.3-0.7-0.7c0-2.4,0.5-4,1.3-5c0.6-0.8,1.5-1.1,2.4-1.1
						c0.8,0,1.7,0.3,2.6,0.7c2.1,1.1,4.2,3.6,5.4,6.2c0.7,1.6,1.3,3.4,1.5,4.3c0.1,0.3,0.1,0.6,0,0.8l0,0c-0.1,0.5-0.5,0.8-1,0.7
						c-0.2,0-0.5-0.2-0.7-0.4c-1-0.9-2.1-1.3-3-1.2c-0.3,0-0.6,0.1-0.8,0.3c-0.2,0.1-0.3,0.3-0.4,0.6c-0.2,0.6,0,1.4,0.8,2.5
						c0.2,0.3,0.1,0.7-0.2,1c-0.3,0.2-0.8,0.1-1-0.2c-1-1.5-1.3-2.8-1-3.7c0.2-0.5,0.5-1,1-1.3c0.4-0.3,1-0.5,1.5-0.5
						c1-0.1,2.2,0.2,3.3,0.9c-0.3-0.9-0.7-2-1.2-3.2c-1-2.3-3-4.5-4.8-5.5c-0.7-0.4-1.3-0.6-1.9-0.6c-0.5,0-1,0.2-1.3,0.6
						C877.4,328.2,877,329.5,877,331.6z"/>
					<path class="st69" d="M887.7,331.7c-6.5-12.4-6.5-26.3-7.1-31.6c-6-52.3,27.4-77.1,60.5-76.2c0.3,0,0.7,0,1,0v20.5
						c-6-1.9-11.2-3.1-14-3.1c-0.3,0-0.7,0-1,0c-0.3,0-0.7,0-1,0c-7.6,0-11.4,12.4-20.2,15.7c-5,1.9-0.2,24.5-5.4,35.9
						c-1.3,2.8-7.9,9.3-9.5,10C886.7,307.3,886.2,312.3,887.7,331.7z"/>
					<path class="st69" d="M996.6,331.7c6.5-12.4,6.4-26.3,7.1-31.6c6-52.3-27.4-77.1-60.5-76.2c-0.3,0-0.7,0-1,0v20.5
						c6.1-1.9,11.2-3.1,14-3.1c0.3,0,0.7,0,1,0c0.3,0,0.7,0,1,0c7.6,0,11.4,15.8,20.2,19.1c5,1.9,0.2,21.1,5.4,32.5
						c1.3,2.8,7.9,9.3,9.5,10C997.7,307.3,998.1,312.3,996.6,331.7z"/>
					<polygon class="st70" points="942.2,488.9 1019.3,488.9 1015,463.1 869.3,463.1 865,488.9 					"/>
					<path class="st70" d="M874.9,465.3c-0.1,1.6-1.4,2.9-3.1,2.8s-3-1.4-2.9-3l6-42.3c0.1-1.6,1.4-2.9,3.1-2.8s3,1.4,2.9,3
						L874.9,465.3z"/>
					<path class="st70" d="M1009.4,465.3c0.1,1.6,1.4,2.9,3.1,2.8s3-1.4,2.9-3l-6-42.3c-0.1-1.6-1.4-2.9-3.1-2.8s-3,1.4-2.9,3
						L1009.4,465.3z"/>
					<path class="st63" d="M963.7,311.3c0.1,0.9-0.6,1.8-1.6,1.9c-1,0.1-1.8-0.6-1.9-1.5c-0.1-0.9,0-1.8,0.2-2.6
						c0.2-0.8,0.6-1.7,1.2-2.4c1.2-1.6,3-2.6,4.9-3c1.9-0.3,3.9,0.1,5.6,1.3c1.1,0.8,1.9,1.7,2.4,2.8c0.5,1.1,0.8,2.4,0.7,3.6
						c-0.1,0.9-0.9,1.7-1.9,1.6s-1.7-0.9-1.6-1.8c0-0.7-0.1-1.4-0.4-2c-0.3-0.6-0.7-1.1-1.3-1.5c-0.9-0.6-2-0.9-3-0.7
						c-1,0.2-2,0.7-2.7,1.6c-0.3,0.4-0.5,0.8-0.6,1.3C963.7,310.4,963.6,310.9,963.7,311.3z"/>
					<path class="st71" d="M903.6,260.2c29.3-19.9,16.7,15.4,41.5,15.5c12.3,0,23.6,4.9,23.4,15.1c-0.2,10.2-0.3,14.7,11,20
						c21.9,10.3-19.9,45.6,35,47.5c-5.7-25.8,21.5-34.1,12.3-56.5c-9.2-22.4-27-15.9-23.2-29.8c3.1-10.9,4.3-22.8-3.7-31.2
						c-11.7-12.1-23.2,0.2-30.7-11.5c-6.3-9.8-9.9-24.4-36.4-18.9C899.2,217.3,897.8,243.5,903.6,260.2z"/>
					<path class="st72" d="M907.4,248c-0.2,0.3-0.7,0.4-1,0.2s-0.4-0.6-0.2-0.9c1.1-1.5,3.8-3.2,7-4.3c2.3-0.8,4.8-1.3,7.3-1.2
						c2.5,0.1,5,0.7,7.2,2.1c1.8,1.3,3.4,3.2,4.3,5.9c2.2,6.1,4.2,9.5,7,11.4c2.8,1.9,6.5,2.4,11.9,2.6c5.7,0.3,12.4,1.2,17.9,4.1
						c5.5,3,9.7,8,10,16.7c0.3,8.2,1.3,12.8,3.1,15.5c1.8,2.7,4.4,3.7,8,4.9c0.3,0.1,0.5,0.2,0.7,0.3c3.5,1.3,6.1,3.4,7.4,6.6
						c1.3,3.1,1.3,7.2-0.5,12.3c-0.2,0.5-0.3,1-0.5,1.5c-2,5.4-2.5,10.2-1.8,14c0.8,3.9,2.9,6.8,6,8.1c0.3,0.1,0.5,0.5,0.4,0.9
						c-0.2,0.3-0.6,0.5-0.9,0.4c-3.6-1.5-6-4.7-6.8-9.1c-0.8-4.1-0.3-9.2,1.8-14.8c0.2-0.5,0.4-1,0.5-1.4c1.6-4.8,1.7-8.6,0.5-11.4
						c-1.1-2.8-3.5-4.7-6.6-5.8c-0.2-0.1-0.5-0.2-0.7-0.2c-3.9-1.2-6.7-2.4-8.7-5.4c-2-3-3-7.8-3.3-16.2c-0.3-8-4.1-12.8-9.2-15.5
						c-5.2-2.8-11.8-3.7-17.2-3.9c-5.7-0.3-9.6-0.8-12.7-2.9c-3.1-2.1-5.2-5.7-7.5-12.1c-0.9-2.4-2.2-4.1-3.8-5.2
						c-1.9-1.3-4.1-1.8-6.4-1.9c-2.3-0.1-4.7,0.4-6.8,1.1C910.8,245.2,908.4,246.6,907.4,248z"/>
					<path class="st72" d="M914.6,228.3c-0.3,0.2-0.8,0-0.9-0.3c-0.2-0.3,0-0.7,0.3-0.9c1.3-0.6,2.9-1.2,4.6-1.7
						c3.9-1.1,8.5-1.5,12.6-0.8c4.2,0.8,8,2.8,10,6.9c0.3,0.7,0.7,1.5,0.9,2.3c1.5,5.3,4.5,8.9,8.1,11.1c4.2,2.5,9.4,3.2,14.5,2.5
						c1.1-0.2,2.3-0.3,3.5-0.3c4.7,0,10,1.2,14.4,3.7c4.4,2.5,7.9,6.2,8.7,11.3c0.1,0.7,0.2,1.5,0.2,2.2c0,2.3-0.1,4.5-0.1,6.5
						c-0.2,8.2-0.3,13,4.4,15.8c0.4,0.2,0.7,0.4,1.1,0.6l0,0c7.5,4.2,25.8,14.5,19.3,31.2c-6.7,17.1-8.3,19-8.3,19
						c-0.2,0.3-0.7,0.4-1,0.1c-0.3-0.2-0.4-0.7-0.1-1c0,0,1.4-1.7,8.1-18.7c6.1-15.6-11.5-25.5-18.6-29.5l0,0
						c-0.4-0.3-0.8-0.5-1.1-0.6c-5.5-3.1-5.4-8.3-5.1-17c0.1-1.9,0.1-4,0.1-6.4c0-0.7-0.1-1.4-0.2-2c-0.7-4.6-3.9-8.1-8-10.4
						c-4.1-2.3-9.2-3.5-13.7-3.5c-1.2,0-2.2,0.1-3.3,0.2c-5.4,0.8-11,0-15.5-2.7c-4-2.4-7.1-6.3-8.7-11.9c-0.2-0.8-0.5-1.5-0.8-2.1
						c-1.8-3.6-5.2-5.4-9-6.1c-3.9-0.7-8.3-0.3-12,0.7C917.3,227.1,915.8,227.7,914.6,228.3z"/>
				</g>
			</g>
		</g>
	</g>
</g>
</svg>
