<svg xmlns="http://www.w3.org/2000/svg" xmlns:xlink="http://www.w3.org/1999/xlink" width="345.617" height="319.847" viewBox="0 0 345.617 319.847">
  <defs>
    <filter id="Trazado_367" x="0" y="4.314" width="321.506" height="315.533" filterUnits="userSpaceOnUse">
      <feOffset dx="-36" dy="24" input="SourceAlpha"/>
      <feGaussianBlur stdDeviation="5.5" result="blur"/>
      <feFlood flood-opacity="0.161"/>
      <feComposite operator="in" in2="blur"/>
      <feComposite in="SourceGraphic"/>
    </filter>
    <linearGradient id="linear-gradient" x1="0.666" y1="1.323" x2="0.419" y2="-0.313" gradientUnits="objectBoundingBox">
      <stop offset="0" stop-color="#ffb30b"/>
      <stop offset="1" stop-color="#e88400"/>
    </linearGradient>
  </defs>
  <g id="OBJECTS" transform="translate(37.918 -3.348)">
    <g id="Grupo_131" data-name="Grupo 131" transform="translate(6.428 3.348)">
      <g id="Grupo_122" data-name="Grupo 122">
        <path id="Trazado_366" data-name="Trazado 366" d="M160.459,264.281,108.933,283.9a30.424,30.424,0,0,1-39.838-19.778L52.557,210.708a31.365,31.365,0,0,0-5.232-10.014L13.071,156.871a31.467,31.467,0,0,1,6.165-44.68L64.031,79.674a30.932,30.932,0,0,0,7.741-8.16l30.353-46.7a30.227,30.227,0,0,1,43.663-7.833l44.229,33.311a30.149,30.149,0,0,0,10.021,4.968l53.01,14.966c16.875,4.765,26.375,22.94,20.806,39.837l-17.471,53.105a31.415,31.415,0,0,0-1.545,11.228l2.4,55.955c.765,17.8-13.295,32.626-30.8,32.455l-55.015-.5A30.123,30.123,0,0,0,160.459,264.281Z" transform="translate(-6.428 0.843)" fill="#cacaff"/>
        <g transform="matrix(1, 0, 0, 1, -44.35, 0)" filter="url(#Trazado_367)">
          <path id="Trazado_367-2" data-name="Trazado 367" d="M165.8,259.547l-51.526,19.622A30.424,30.424,0,0,1,74.44,259.391L57.9,205.974A31.365,31.365,0,0,0,52.67,195.96L18.4,152.121a31.467,31.467,0,0,1,6.165-44.68L69.361,74.924a30.932,30.932,0,0,0,7.741-8.16l30.353-46.7a30.227,30.227,0,0,1,43.663-7.833l44.214,33.311a30.149,30.149,0,0,0,10.021,4.968l53.01,14.966c16.875,4.765,26.375,22.94,20.806,39.837l-17.456,53.105a31.415,31.415,0,0,0-1.545,11.228l2.4,55.955c.765,17.8-13.295,32.626-30.8,32.455l-55.015-.5A30.33,30.33,0,0,0,165.8,259.547Z" transform="translate(40.74 -1.8)" fill="#ff9810"/>
        </g>
        <path id="Trazado_368" data-name="Trazado 368" d="M181.549,256.761l-51.526,19.622a30.424,30.424,0,0,1-39.838-19.778L73.647,203.189a31.366,31.366,0,0,0-5.232-10.014L34.161,149.351a31.467,31.467,0,0,1,6.165-44.68L85.121,72.154a30.932,30.932,0,0,0,7.741-8.16l30.353-46.7a30.227,30.227,0,0,1,43.663-7.833l44.214,33.311a30.149,30.149,0,0,0,10.021,4.968L274.122,62.7C291,67.467,300.5,85.641,294.929,102.538l-17.471,53.105a31.416,31.416,0,0,0-1.545,11.228l2.4,55.955c.765,17.8-13.295,32.626-30.8,32.455l-55.014-.5A30.1,30.1,0,0,0,181.549,256.761Z" transform="translate(4.747 -3.348)" fill="#ffb30b"/>
        <path id="Trazado_369" data-name="Trazado 369" d="M116.634,218.169a15.962,15.962,0,0,0,2.738-.763L170.9,197.783a44.442,44.442,0,0,1,8.108-2.243h0a44.328,44.328,0,0,1,8.368-.7l55.014.5a15.666,15.666,0,0,0,2.83-.234,15.483,15.483,0,0,0,12.545-15.963l-2.081-48.527C191.308,161.559,97.19,78.491,37.708,83.179c-.015.093-.031.171-.046.265a15.638,15.638,0,0,0,3.167,11.836L75.083,139.1a46.722,46.722,0,0,1,7.848,15.028l16.538,53.417A15.274,15.274,0,0,0,116.634,218.169Z" transform="translate(10.042 41.037)" fill="url(#linear-gradient)"/>
        <g id="Grupo_120" data-name="Grupo 120" transform="translate(37.182 17.431)">
          <path id="Trazado_370" data-name="Trazado 370" d="M103.077,245.679,86.539,192.263a46.863,46.863,0,0,0-7.848-15.028L44.421,133.411A15.723,15.723,0,0,1,47.5,111.094L92.291,78.577A46.154,46.154,0,0,0,103.9,66.336l30.353-46.7a15.26,15.26,0,0,1,5.049-4.843A15.069,15.069,0,0,0,123.883,21.5l-30.338,46.7A46.215,46.215,0,0,1,81.934,80.462l-44.81,32.5a15.366,15.366,0,0,0-6.242,10.481,15.638,15.638,0,0,0,3.167,11.836L68.3,179.1a46.722,46.722,0,0,1,7.848,15.028l16.538,53.417a15.253,15.253,0,0,0,17.15,10.637,15.96,15.96,0,0,0,2.738-.763l2.769-1.059A15.366,15.366,0,0,1,103.077,245.679Z" transform="translate(-30.732 -14.541)" fill="#ff9810"/>
          <path id="Trazado_371" data-name="Trazado 371" d="M140.139,154.811a45.655,45.655,0,0,0-8.368.7h0a45.764,45.764,0,0,0-5.14,1.246c1.04-.062,2.081-.109,3.121-.093l55.015.5a15.668,15.668,0,0,0,2.83-.234,14.862,14.862,0,0,0,4.59-1.651Z" transform="translate(20.083 63.635)" fill="#ff9810"/>
        </g>
        <g id="Grupo_121" data-name="Grupo 121" transform="translate(118.599 16.113)">
          <path id="Trazado_372" data-name="Trazado 372" d="M211.255,220.175l-2.4-55.955a47.38,47.38,0,0,1,2.325-16.866l17.456-53.105a15.611,15.611,0,0,0-.994-12.225,15.2,15.2,0,0,0-9.393-7.678L165.237,59.38A45.654,45.654,0,0,1,150.2,51.92L105.984,18.609a14.955,14.955,0,0,0-6.364-2.788,15.171,15.171,0,0,1,5.018-1.884,14.864,14.864,0,0,1,11.719,2.819L160.57,50.067a45.21,45.21,0,0,0,15.039,7.46l53.01,14.966a15.2,15.2,0,0,1,9.393,7.678,15.611,15.611,0,0,1,.994,12.225L221.551,145.5a47.38,47.38,0,0,0-2.325,16.866l2.4,55.955a15.484,15.484,0,0,1-12.545,15.963,14.181,14.181,0,0,1-2.83.234l-2.968-.031A15.579,15.579,0,0,0,211.255,220.175Z" transform="translate(-75.647 -13.695)" fill="#8b81ea"/>
          <path id="Trazado_373" data-name="Trazado 373" d="M132.707,159.29a44.288,44.288,0,0,1,8.093-2.243h0a42.307,42.307,0,0,1,5.247-.607c-.994.3-1.989.623-2.968,1L91.554,177.059a15.222,15.222,0,0,1-2.738.763,14.6,14.6,0,0,1-4.865.047Z" transform="translate(-83.95 65.863)" fill="#8b81ea"/>
        </g>
        <path id="Trazado_374" data-name="Trazado 374" d="M245.207,233.909a14.182,14.182,0,0,1-2.83.234l-55.015-.5a45.655,45.655,0,0,0-8.368.7h0a46.089,46.089,0,0,0-8.108,2.243L119.36,256.21a15.584,15.584,0,0,1-2.738.763,15.253,15.253,0,0,1-17.15-10.637L82.933,192.92a46.863,46.863,0,0,0-7.848-15.028L40.831,134.083a15.723,15.723,0,0,1,3.075-22.317L88.7,79.25a46.154,46.154,0,0,0,11.612-12.241l30.353-46.7a15.1,15.1,0,0,1,10.067-6.728,14.916,14.916,0,0,1,11.719,2.8l44.214,33.311a45.21,45.21,0,0,0,15.039,7.46l53.01,14.966a15.2,15.2,0,0,1,9.393,7.678A15.611,15.611,0,0,1,275.1,92.02L257.63,145.125a47.294,47.294,0,0,0-2.325,16.85l2.4,55.955A15.4,15.4,0,0,1,245.207,233.909Z" transform="translate(10.041 2.217)" fill="none" stroke="#fff" stroke-miterlimit="10" stroke-width="6"/>
      </g>
      <g id="Grupo_130" data-name="Grupo 130" transform="translate(98.931 100.794)">
        <g id="Grupo_129" data-name="Grupo 129" transform="translate(0 0)">
          <text id="Crear" transform="translate(9.201 72.946) rotate(-9.997)" fill="none" stroke="#e0750a" stroke-linecap="round" stroke-linejoin="round" stroke-width="9" font-size="49" font-family="SegoeUI, Segoe UI"><tspan x="0" y="0">Crear</tspan></text>
          <text id="Crear-2" data-name="Crear" transform="translate(18.38 72.946) rotate(-9.997)" fill="none" stroke="#513a9b" stroke-linecap="round" stroke-linejoin="round" stroke-width="9" font-size="49" font-family="SegoeUI, Segoe UI"><tspan x="0" y="0">Crear</tspan></text>
          <text id="Crear-3" data-name="Crear" transform="translate(18.38 72.946) rotate(-9.997)" fill="#f9fbfc" font-size="49" font-family="SegoeUI, Segoe UI"><tspan x="0" y="0">Crear</tspan></text>
        </g>
      </g>
    </g>
  </g>
</svg>
