<svg xmlns="http://www.w3.org/2000/svg" width="82.682" height="90.517" viewBox="0 0 82.682 90.517">
  <g id="Grupo_286" data-name="Grupo 286" transform="translate(-6024 -880.303)">
    <path id="Rectángulo_304" data-name="Rectángulo 304" d="M10,0H72.682a10,10,0,0,1,10,10V69.8a0,0,0,0,1,0,0H0a0,0,0,0,1,0,0V10A10,10,0,0,1,10,0Z" transform="translate(6024 901.024)" fill="#9976ae"/>
    <g id="Grupo_285" data-name="Grupo 285" transform="translate(6031.074 880.303)">
      <g id="Grupo_283" data-name="Grupo 283" transform="translate(0 0)">
        <path id="Trazado_1051" data-name="Trazado 1051" d="M52.643,156.109H86.886c0-30.707-25.562-14.12-25.562-39.709H43.818c0,25.589-25.418,9-25.418,39.709Z" transform="translate(-18.4 -65.592)" fill="#e4ae7c" fill-rule="evenodd"/>
        <path id="Trazado_1052" data-name="Trazado 1052" d="M44.964,81.221c-.1-.868-3.789-1.873-5.036.96s1.007,6.854,5.228,7.174,2.973-.411,2.973-.411Z" transform="translate(-29.425 -45.994)" fill="#e4ae7c" fill-rule="evenodd"/>
        <path id="Trazado_1053" data-name="Trazado 1053" d="M125.479,81.221c.1-.868,3.789-1.873,5.036.96s-1.007,6.854-5.228,7.174-2.973-.411-2.973-.411Z" transform="translate(-72.388 -45.994)" fill="#e4ae7c" fill-rule="evenodd"/>
        <path id="Trazado_1054" data-name="Trazado 1054" d="M89.149,114.8s-.048,1.188,0,2.924c-3.069,7.357-14.388,7.631-17.649.32.048-1.919,0-3.244,0-3.244Z" transform="translate(-46.034 -64.723)" fill="#d67f54" fill-rule="evenodd"/>
        <path id="Trazado_1055" data-name="Trazado 1055" d="M67.193,65.032c-21.965.5-33.044-51.087,0-49.762C100.237,13.945,89.159,65.535,67.193,65.032Z" transform="translate(-32.951 -10.659)" fill="#e4ae7c" fill-rule="evenodd"/>
        <path id="Trazado_1056" data-name="Trazado 1056" d="M67.879,71.635a.575.575,0,0,1-.528.64.591.591,0,0,1-.671-.5,1.8,1.8,0,0,1,.1-.868,2.375,2.375,0,0,1,.384-.777,2.513,2.513,0,0,1,1.679-.96,2.893,2.893,0,0,1,1.918.411,2.609,2.609,0,0,1,.815.96,2.052,2.052,0,0,1,.24,1.188.6.6,0,0,1-1.2-.046,1.4,1.4,0,0,0-.144-.64,1.445,1.445,0,0,0-.432-.5,1.331,1.331,0,0,0-1.007-.228,1.511,1.511,0,0,0-.911.5.8.8,0,0,0-.192.411A1.084,1.084,0,0,0,67.879,71.635Z" transform="translate(-43.515 -39.927)" fill="#39271f" fill-rule="evenodd"/>
        <path id="Trazado_1057" data-name="Trazado 1057" d="M64.306,83.753c1.1.823,1.151,2.011.1,2.7a3.83,3.83,0,0,1-3.933-.274c-1.1-.823-1.151-2.011-.1-2.7A3.73,3.73,0,0,1,64.306,83.753Z" transform="translate(-39.846 -47.475)" fill="#da9077" fill-rule="evenodd"/>
        <path id="Trazado_1058" data-name="Trazado 1058" d="M109.569,83.753c-1.1.823-1.151,2.011-.1,2.7a3.83,3.83,0,0,0,3.933-.274c1.1-.823,1.151-2.011.1-2.7A3.736,3.736,0,0,0,109.569,83.753Z" transform="translate(-65.398 -47.475)" fill="#da9077" fill-rule="evenodd"/>
        <path id="Trazado_1059" data-name="Trazado 1059" d="M69.155,58.1c-.1-.046-.144-.046-.24-.091a6.577,6.577,0,0,0-2.494-.32,5.814,5.814,0,0,0-2.35.685c-.336.228-1.727,1.279-1.343,1.691.144.046,1.535-.64,1.966-.777a6.037,6.037,0,0,1,1.822-.228,5.2,5.2,0,0,1,1.679.32.5.5,0,0,0,.144.046c1.151.548,1.055.868,1.822.366C71.361,59.195,70.114,58.555,69.155,58.1Z" transform="translate(-41.434 -33.701)" fill="#3f2716" fill-rule="evenodd"/>
        <path id="Trazado_1060" data-name="Trazado 1060" d="M101.8,58.1c.1-.046.144-.046.24-.091a6.577,6.577,0,0,1,2.494-.32,5.814,5.814,0,0,1,2.35.685c.336.228,1.727,1.279,1.343,1.691-.144.046-1.535-.64-1.966-.777a6.037,6.037,0,0,0-1.822-.228,5.2,5.2,0,0,0-1.679.32.5.5,0,0,1-.144.046c-1.151.548-1.055.868-1.822.366C99.646,59.195,100.893,58.555,101.8,58.1Z" transform="translate(-61.039 -33.701)" fill="#3f2716" fill-rule="evenodd"/>
        <path id="Trazado_1061" data-name="Trazado 1061" d="M78,94.046C80.014,94,82.029,94,84.043,94s4.029,0,6.043.046c0,3.016-3.117,4.113-6.043,4.113h0C81.117,98.158,78,97.107,78,94.046Z" transform="translate(-49.416 -53.427)" fill="#fff" fill-rule="evenodd"/>
        <path id="Trazado_1062" data-name="Trazado 1062" d="M87.576,106.579a.255.255,0,0,1-.1-.32.283.283,0,0,1,.336-.091,2.506,2.506,0,0,0,1.151.274,2.368,2.368,0,0,0,1.151-.274.26.26,0,0,1,.336.091.235.235,0,0,1-.1.32,3.184,3.184,0,0,1-2.782,0Z" transform="translate(-54.34 -60.02)" fill="#d67f54" fill-rule="evenodd"/>
        <path id="Trazado_1063" data-name="Trazado 1063" d="M89.24,78.095a.229.229,0,1,1,0-.457,11.242,11.242,0,0,0,1.774-.091c.432-.091.767-.183.767-.366,0-.64-.671-4.707-.719-4.707a.251.251,0,0,1,.192-.274.263.263,0,0,1,.288.183s.719,4.113.719,4.8c0,.457-.48.731-1.151.823C90.535,78.049,89.815,78.095,89.24,78.095Z" transform="translate(-55.141 -41.589)" fill="#d67f54" fill-rule="evenodd"/>
        <path id="Trazado_1064" data-name="Trazado 1064" d="M132.012,86.788a.24.24,0,0,1-.48,0,2.21,2.21,0,0,0-.336-1.371.673.673,0,0,0-.432-.228,1.361,1.361,0,0,0-.671.183,3.944,3.944,0,0,0-1.631,1.828,4.007,4.007,0,0,0-.384,1.051,2.162,2.162,0,0,1,1.1-.32,1.037,1.037,0,0,1,.528.183,1,1,0,0,1,.336.411,1.509,1.509,0,0,1-.336,1.234.245.245,0,0,1-.336.046c-.1-.091-.144-.228-.048-.32a1.219,1.219,0,0,0,.288-.868.635.635,0,0,0-.144-.183.7.7,0,0,0-.288-.091,1.274,1.274,0,0,0-1.007.411c-.1.091-.144.137-.24.137-.192.046-.288-.046-.336-.228h0v-.274a4.688,4.688,0,0,1,.528-1.417,4.639,4.639,0,0,1,1.822-2.056,1.367,1.367,0,0,1,.911-.228,1.208,1.208,0,0,1,.815.366A4.02,4.02,0,0,1,132.012,86.788Z" transform="translate(-75.229 -48.363)" fill="#d67f54" fill-rule="evenodd"/>
        <path id="Trazado_1065" data-name="Trazado 1065" d="M43.38,86.911a.24.24,0,0,1-.48,0,2.378,2.378,0,0,1,.432-1.645.973.973,0,0,1,.815-.366,2.438,2.438,0,0,1,.911.228,4.407,4.407,0,0,1,1.822,2.056,13.6,13.6,0,0,1,.528,1.417v.274h0c-.048.183-.144.274-.336.228-.1,0-.144-.046-.24-.137a1.274,1.274,0,0,0-1.007-.411.705.705,0,0,0-.288.091.635.635,0,0,0-.144.183,1.1,1.1,0,0,0,.288.868c.1.091.048.228-.048.32a.245.245,0,0,1-.336-.046,1.509,1.509,0,0,1-.336-1.234.736.736,0,0,1,.336-.411,1.773,1.773,0,0,1,.528-.183,1.484,1.484,0,0,1,1.1.32c-.1-.274-.24-.685-.384-1.051a3.944,3.944,0,0,0-1.631-1.828,1.243,1.243,0,0,0-.671-.183.51.51,0,0,0-.432.228C43.476,85.814,43.38,86.225,43.38,86.911Z" transform="translate(-31.15 -48.485)" fill="#d67f54" fill-rule="evenodd"/>
        <path id="Trazado_1066" data-name="Trazado 1066" d="M103.679,71.635a.575.575,0,0,1-.528.64.591.591,0,0,1-.671-.5,1.8,1.8,0,0,1,.1-.868,2.375,2.375,0,0,1,.384-.777,2.513,2.513,0,0,1,1.679-.96,2.893,2.893,0,0,1,1.918.411,2.609,2.609,0,0,1,.815.96,2.052,2.052,0,0,1,.24,1.188.6.6,0,0,1-1.2-.046,1.4,1.4,0,0,0-.144-.64,1.445,1.445,0,0,0-.432-.5,1.331,1.331,0,0,0-1.007-.228,1.511,1.511,0,0,0-.911.5.8.8,0,0,0-.192.411A1.084,1.084,0,0,0,103.679,71.635Z" transform="translate(-62.146 -39.927)" fill="#39271f" fill-rule="evenodd"/>
        <path id="Trazado_1067" data-name="Trazado 1067" d="M117.737,21.655c-3.981-1.645-4.748-3.473-5.851-5.62-2.062-4.158-1.007-8.728,3.069-10.19,7.865-2.833,14.436,4.387,13.429,10.19A7.77,7.77,0,0,1,117.737,21.655Z" transform="translate(-66.517 -5.209)" fill="#2e1e11" fill-rule="evenodd"/>
        <path id="Trazado_1068" data-name="Trazado 1068" d="M43.036,21.655c3.981-1.645,4.748-3.473,5.851-5.62,2.062-4.158,1.007-8.728-3.069-10.19-7.865-2.833-14.436,4.387-13.429,10.19A7.754,7.754,0,0,0,43.036,21.655Z" transform="translate(-25.627 -5.209)" fill="#2e1e11" fill-rule="evenodd"/>
        <path id="Trazado_1069" data-name="Trazado 1069" d="M48.084,49.1c.863-.868-.671-5.118.528-11.012S64.439,25.068,66.789,21.824c2.4,3.2,16.978,10.373,18.177,16.267s.528,7.265,1.391,8.134c.671.64,9.3-32.855-19.567-32.626C35.615,13.6,47.989,49.195,48.084,49.1Z" transform="translate(-32.546 -9.764)" fill="#4e3832" fill-rule="evenodd"/>
        <path id="Trazado_1070" data-name="Trazado 1070" d="M68.052,30.2c.959,5.529-10.983,8.5-13.429,23.259C52.465,66.619,56.3,79.688,56.3,79.688c.192.731-.719.366-1.535-1.279-1.247-2.513-8.777-15.948-6.091-28.285C51.41,37.831,61.721,32.165,68.052,30.2Z" transform="translate(-33.857 -18.78)" fill="#f1d3a4" fill-rule="evenodd"/>
        <path id="Trazado_1071" data-name="Trazado 1071" d="M89.841,30.2c-.959,5.529,10.983,8.5,13.429,23.259,2.158,13.16-1.679,26.229-1.679,26.229-.192.731.719.366,1.535-1.279,1.247-2.513,8.777-15.948,6.091-28.285C106.53,37.831,96.171,32.165,89.841,30.2Z" transform="translate(-55.55 -18.78)" fill="#f1d3a4" fill-rule="evenodd"/>
        <path id="Trazado_1072" data-name="Trazado 1072" d="M87.6,129.737c-4.94,3.107-14.1,3.427-18.8-.137a15.763,15.763,0,0,1-1.2,3.473c5.9,3.564,15.251,3.336,21.246.046A14.138,14.138,0,0,1,87.6,129.737Z" transform="translate(-44.004 -72.76)" fill="#35253d" fill-rule="evenodd"/>
        <path id="Trazado_1076" data-name="Trazado 1076" d="M58.007,78.592a.294.294,0,0,1-.1.32.328.328,0,0,1-.336-.091,33.235,33.235,0,0,1-2.638-23.03A29.9,29.9,0,0,1,67.886,37.741a.245.245,0,0,1,.336.046c.1.091.048.228-.048.32A29.284,29.284,0,0,0,55.417,55.882,32.842,32.842,0,0,0,58.007,78.592Z" transform="translate(-36.905 -22.848)" fill="#ddba8a" fill-rule="evenodd"/>
        <path id="Trazado_1077" data-name="Trazado 1077" d="M106.59,78.775a.283.283,0,0,1-.336.091c-.144-.046-.144-.183-.1-.32a32.842,32.842,0,0,0,2.59-22.71,29.51,29.51,0,0,0-12.757-17.73c-.1-.091-.144-.228-.048-.32a.245.245,0,0,1,.336-.046A29.519,29.519,0,0,1,109.228,55.79,33.348,33.348,0,0,1,106.59,78.775Z" transform="translate(-58.727 -22.848)" fill="#ddba8a" fill-rule="evenodd"/>
      </g>
      <path id="Trazado_1073" data-name="Trazado 1073" d="M18.4,179.351H86.934c0-12.292-4.077-17-8.968-19.877-13.812,15.948-36.4,15.856-50.117-.274C22.764,162.033,18.4,166.648,18.4,179.351Z" transform="translate(-18.4 -88.834)" fill="#35253d" fill-rule="evenodd"/>
    </g>
  </g>
</svg>
